<svg version="1.1" id="Layer_1" xmlns="http://www.w3.org/2000/svg" xmlns:xlink="http://www.w3.org/1999/xlink" x="0px" y="0px"
	 width="100%" viewBox="0 0 1200 750" enable-background="new 0 0 1200 750" xml:space="preserve">
<path fill="#000001" opacity="1.000000" stroke="none" 
	d="
M1201.000000,10.000000 
	C1201.000000,155.690750 1201.000000,301.381500 1200.531372,447.536499 
	C803.174316,448.000763 406.285858,448.000763 9.352633,448.000763 
	C9.352633,301.765167 9.352633,155.925507 9.352633,10.000000 
	C406.804047,10.000000 803.902039,10.000000 1201.000000,10.000000 
M899.136108,170.270660 
	C899.012268,170.102661 898.888489,169.934677 898.924744,169.101044 
	C913.433350,148.470261 934.013550,141.381699 959.518616,148.688766 
	C966.783752,150.770172 973.737793,153.937485 980.786316,156.588699 
	C982.802368,139.360886 973.435669,126.890442 948.088257,113.319679 
	C951.357483,102.976540 956.805969,96.413826 966.536987,92.433029 
	C971.568115,90.374832 976.963745,88.321846 982.290405,88.033234 
	C1000.061035,87.070396 1017.872620,86.730812 1035.673096,86.486046 
	C1052.668945,86.252342 1069.646240,86.439743 1086.108643,81.100479 
	C1105.840576,74.700836 1118.505737,56.835716 1117.462402,32.752243 
	C1108.391113,48.052605 1094.372192,55.711182 1078.688110,60.548744 
	C1050.691162,69.184090 1022.013489,69.319977 993.174988,66.329460 
	C992.843506,66.295090 992.393433,66.387016 992.199646,66.205521 
	C990.824646,64.917389 989.502014,63.573322 988.162659,62.247108 
	C989.362915,61.108250 990.382812,59.549435 991.809082,58.937065 
	C993.583313,58.175266 995.682434,58.047394 997.660034,57.902519 
	C1007.460510,57.184586 1017.292786,56.806469 1027.065308,55.825226 
	C1040.045288,54.521935 1052.917969,52.243992 1063.272583,43.507854 
	C1067.206421,40.188858 1070.026245,35.549240 1073.954834,30.782427 
	C1067.387207,34.229542 1062.448608,37.947910 1056.901367,39.523403 
	C1039.791626,44.382938 1022.250916,46.726784 1004.383362,46.229328 
	C999.742798,46.100132 995.046448,46.229256 990.445618,46.801834 
	C981.863037,47.869938 974.674500,52.060795 968.095886,58.730713 
	C968.490417,51.238213 971.827637,46.727539 977.483521,44.065712 
	C982.422668,41.741253 987.585510,39.890541 992.657410,37.850147 
	C1001.409973,34.329079 1008.536377,28.908405 1012.964844,20.383202 
	C1013.443054,19.462444 1013.535217,18.341076 1013.995361,16.596985 
	C1011.473694,18.552603 1010.045105,20.325253 1008.219666,20.964100 
	C999.096008,24.157072 989.988770,27.516209 980.648926,29.944347 
	C966.535461,33.613510 951.407349,34.859489 941.970825,48.647339 
	C942.529358,45.204140 943.087891,41.760937 943.699646,37.989433 
	C942.895203,38.383308 942.185486,38.524899 941.788025,38.955002 
	C926.063416,55.974289 905.528381,63.400421 883.655212,68.176979 
	C870.118713,71.133003 856.471130,73.671326 843.086853,77.205185 
	C832.070190,80.113922 822.768738,85.544487 822.608887,98.077087 
	C809.281860,98.077087 796.297424,97.629311 783.364502,98.251198 
	C776.038513,98.603485 768.622009,100.114128 761.562683,102.182716 
	C753.230042,104.624405 746.640564,109.993912 745.273804,119.084099 
	C743.624146,130.056656 748.296936,139.592560 753.645020,149.425140 
	C755.343323,144.463654 756.449219,140.118774 758.295837,136.115616 
	C760.689453,130.926849 763.807739,130.799744 767.083801,135.531815 
	C768.584595,137.699646 769.722351,140.139221 770.854126,142.536133 
	C771.919312,144.791916 772.760010,147.153702 773.699463,149.468857 
	C773.995605,149.363205 774.291809,149.257538 774.587952,149.151886 
	C774.587952,143.834412 774.587952,138.516953 774.587952,134.440750 
	C781.009644,136.590973 787.406006,140.095535 794.041138,140.628693 
	C803.526733,141.390900 813.194702,140.095795 822.770691,139.465363 
	C833.690247,138.746460 844.610962,136.963959 855.500366,137.181976 
	C865.677734,137.385742 875.293579,140.808456 882.718628,148.249115 
	C878.317505,155.566605 874.537109,162.818054 869.843628,169.420380 
	C863.441467,178.426178 857.173279,187.791931 849.313538,195.423355 
	C841.243042,203.259354 834.101746,200.921036 828.849121,190.796906 
	C828.109741,189.371765 827.104675,188.084442 825.839722,186.146912 
	C823.627686,194.272079 823.134827,202.021088 816.866638,207.533737 
	C810.926941,202.780304 811.955750,195.575958 808.982544,189.340439 
	C803.702881,198.927994 801.620056,208.430618 803.721191,218.429733 
	C805.792419,228.286530 811.721619,232.635010 821.705383,233.104919 
	C831.921021,233.585754 840.135010,229.193192 847.348877,222.647156 
	C853.142639,217.389908 858.465271,211.617432 864.143555,206.228058 
	C876.652832,194.355408 885.091797,194.005753 898.807129,204.585678 
	C899.044006,204.768341 899.414856,204.777237 899.823181,204.896393 
	C919.924438,191.696259 941.603271,185.402145 966.809143,191.459839 
	C961.707092,184.939423 955.817871,182.042358 949.203247,182.187286 
	C940.284546,182.382690 931.392395,183.794449 922.162537,184.233749 
	C922.042969,184.091980 921.923462,183.950226 922.065063,183.178116 
	C943.068054,166.012650 964.467163,172.958176 986.995117,182.827774 
	C976.234863,168.625473 963.751465,159.630905 946.781311,158.075775 
	C929.465454,156.488937 914.142395,162.526382 899.136108,170.270660 
M1059.706665,243.983490 
	C1063.296875,257.769836 1064.857056,271.626953 1063.286011,285.958160 
	C1060.180054,314.292664 1048.589722,338.726013 1029.771362,359.661316 
	C1002.063782,390.485962 966.739807,407.317566 926.260071,414.100525 
	C920.965881,414.987610 915.661377,415.813568 910.361694,416.667816 
	C982.102722,426.071625 1048.307373,416.592163 1101.308350,360.421387 
	C1101.308350,370.383057 1101.308350,379.881378 1101.308350,390.059052 
	C1135.810303,363.635773 1153.381836,330.058350 1149.949585,285.440491 
	C1164.266113,299.046478 1167.026001,316.153229 1171.174561,332.707916 
	C1177.686401,290.477936 1178.595825,249.454147 1147.255371,214.465561 
	C1154.878052,217.128220 1162.725708,219.614822 1169.480957,223.845764 
	C1176.151367,228.023621 1181.716919,233.965317 1187.487427,238.894302 
	C1183.173096,207.142609 1165.984009,185.575333 1134.043945,176.108078 
	C1153.513794,168.445221 1171.160767,176.389618 1189.221436,182.074646 
	C1174.666260,154.149750 1142.606934,130.501434 1090.298096,139.988831 
	C1106.896362,123.791351 1126.711670,126.535400 1146.968384,127.345123 
	C1131.357910,113.811333 1113.913574,107.248650 1094.406250,106.141235 
	C1070.513306,104.784874 1047.904663,110.424576 1026.016846,119.542259 
	C1024.560181,120.149055 1023.039734,120.602562 1021.548889,121.127357 
	C1030.645386,110.923210 1043.073242,106.530281 1055.835693,100.033974 
	C1052.947144,100.033974 1051.504517,100.029701 1050.061890,100.034645 
	C1037.927612,100.076202 1025.793335,100.144249 1013.659058,100.154076 
	C1004.507263,100.161484 995.338867,99.740768 986.208496,100.166672 
	C978.004028,100.549393 970.351746,103.141983 963.371887,108.789856 
	C975.991089,116.059860 984.685974,126.203133 989.564697,139.496872 
	C993.285950,149.636948 994.797791,160.140671 994.052246,170.888016 
	C993.816284,174.287979 994.888794,175.639404 998.012695,177.024872 
	C1027.913208,190.285828 1049.450928,211.414719 1059.706665,243.983490 
M166.546600,166.027725 
	C172.387894,172.806107 173.191544,179.723373 167.210037,186.900818 
	C166.598618,187.634476 166.349869,188.672012 165.940170,189.571884 
	C163.492767,194.947220 165.517273,199.174683 172.626648,203.539505 
	C179.421707,207.711319 186.435959,207.943192 189.600479,204.037109 
	C190.214066,203.279724 190.594879,202.318176 191.008179,201.416489 
	C195.984238,190.560181 201.209167,179.808365 205.850464,168.810410 
	C212.871429,152.173599 219.105164,135.197235 226.394257,118.683319 
	C231.772308,106.499046 233.210480,106.676781 242.087006,116.701553 
	C257.922302,134.585281 271.103668,154.303726 282.849274,175.035629 
	C287.801910,183.777420 291.993652,192.692001 289.045258,203.489822 
	C301.271942,208.227936 313.419342,211.814957 326.457642,209.181183 
	C331.796234,208.102798 332.377594,205.954559 329.056488,201.710037 
	C314.600861,183.234970 300.126068,164.774841 285.647095,146.318024 
	C271.068359,127.734070 256.476501,109.160416 241.897552,90.591370 
	C245.758926,84.371559 249.423599,78.237503 253.331772,72.262726 
	C255.567917,68.844139 255.683914,65.464020 252.908585,62.730530 
	C247.727066,57.627151 242.320297,52.713558 236.660858,48.150642 
	C233.794891,45.839951 230.266373,46.194271 227.978180,49.448185 
	C224.853500,53.891621 221.406967,58.279011 219.233795,63.192589 
	C208.265549,87.991837 197.715347,112.975647 186.884094,137.836151 
	C185.238968,141.612167 182.889282,145.081207 180.387741,149.544632 
	C169.930435,138.456009 160.343735,128.528427 151.039230,118.343056 
	C144.528793,111.216263 138.487701,103.662895 132.078033,96.441124 
	C127.681740,91.487808 126.643585,86.682411 130.875122,80.963470 
	C133.316818,77.663506 135.230927,73.868683 136.759003,70.047279 
	C137.393860,68.459671 137.139694,65.388481 136.034454,64.410164 
	C126.500153,55.970745 113.745888,50.267296 103.777451,64.352074 
	C96.535400,74.584648 89.067757,84.833534 83.325127,95.916817 
	C68.776299,123.996040 54.936325,152.450867 41.303822,180.989990 
	C38.341068,187.192429 34.868641,190.000229 28.067871,189.104965 
	C25.428684,188.757523 22.644308,189.512970 19.926071,189.766022 
	C26.894073,196.266907 33.729218,201.456573 40.496975,206.732681 
	C47.966164,212.555603 59.416630,211.760361 64.793503,203.919342 
	C72.006836,193.400223 78.887817,182.548080 84.765305,171.243011 
	C93.326698,154.775589 100.755928,137.722916 108.923111,121.044762 
	C110.905701,116.996147 113.885414,113.435829 117.034904,108.707817 
	C135.403717,127.072029 151.609818,145.504028 166.546600,166.027725 
M481.037140,335.525177 
	C479.352417,336.869843 477.564514,338.105133 476.001831,339.579163 
	C470.796997,344.488586 470.704071,344.639526 475.467529,349.868774 
	C481.522003,356.515289 487.389893,363.418579 494.078217,369.381165 
	C504.986237,379.105560 516.392029,388.284271 527.797485,397.431702 
	C532.283264,401.029388 537.829346,402.156952 543.397705,400.514526 
	C551.948425,397.992432 560.390259,395.087280 568.814209,392.160156 
	C570.653870,391.520905 572.223511,390.104767 573.917542,389.046417 
	C573.847900,388.483276 573.778259,387.920135 573.708618,387.356995 
	C569.925293,386.585175 566.094238,385.990692 562.373230,384.987946 
	C559.132385,384.114655 555.542297,383.426636 552.940247,381.519318 
	C547.048462,377.200592 541.467651,372.397308 536.128540,367.397858 
	C526.528992,358.408905 517.198975,349.131989 507.758362,339.973389 
	C505.139374,337.432648 505.356476,335.276611 508.375549,333.103271 
	C513.100769,329.701782 517.709595,326.135437 522.311829,322.566833 
	C532.737244,314.482910 543.001770,306.181244 549.714600,294.521271 
	C557.666626,280.708862 557.197998,266.886383 548.443481,253.657791 
	C543.829346,246.685623 537.272400,243.068176 528.407654,242.861420 
	C507.992828,242.385284 491.248779,250.758636 476.254730,263.443085 
	C468.311523,270.162720 460.970490,277.594208 453.079010,284.964569 
	C452.676086,283.926880 451.535339,282.105072 451.294281,280.171112 
	C450.351715,272.608612 449.681915,265.011780 448.934509,257.425385 
	C448.560181,253.625793 443.007568,245.593597 439.884521,245.292145 
	C430.021729,244.340118 420.131470,243.435547 410.235962,243.210724 
	C407.439392,243.147202 404.588440,245.476089 401.762451,246.707718 
	C401.800934,247.309479 401.839417,247.911255 401.877899,248.513016 
	C404.681122,249.673859 407.423523,251.020966 410.299255,251.959778 
	C418.169403,254.529083 420.078217,256.984039 420.043976,265.236511 
	C419.934082,291.723419 420.060699,318.215027 419.569702,344.695038 
	C419.327179,357.773987 418.366486,370.883057 416.833527,383.872620 
	C416.245605,388.854431 413.159271,393.541382 410.856079,399.242096 
	C423.516754,401.697418 435.906982,402.790894 448.008759,397.913696 
	C449.895325,397.153412 451.656372,393.512543 451.687927,391.179474 
	C451.802246,382.732056 450.933777,374.276703 450.842133,365.819946 
	C450.670624,349.990417 450.563843,334.152832 450.920349,318.329681 
	C451.017578,314.015045 451.972595,309.238892 454.057434,305.531219 
	C464.266174,287.375763 478.761444,273.413879 497.750488,264.698212 
	C502.495209,262.520477 508.438324,261.161530 513.508484,261.838593 
	C526.092163,263.519012 535.027405,283.080963 528.704773,294.688538 
	C525.986328,299.679291 522.227417,304.560730 517.816528,308.083649 
	C506.058502,317.474609 493.690247,326.101471 481.037140,335.525177 
M806.350403,322.993744 
	C805.973755,323.523407 805.597046,324.053070 805.220398,324.582764 
	C807.131104,325.896851 809.083679,327.154449 810.945251,328.534790 
	C818.731201,334.308044 823.015137,333.995728 828.016846,325.797455 
	C833.536194,316.750793 838.103943,307.125824 843.156189,297.790680 
	C844.754089,294.838196 846.577026,292.007538 849.112854,287.751862 
	C857.436646,297.480225 864.973511,306.056305 872.130676,314.938324 
	C873.059265,316.090698 872.735596,319.296600 871.771667,320.731506 
	C869.006287,324.847870 870.684326,327.115265 874.252319,329.041565 
	C878.233521,331.190948 881.319580,330.405518 883.134033,326.454254 
	C887.204529,317.590179 891.043457,308.619965 895.086365,299.742920 
	C896.883118,295.797791 898.945496,291.973663 900.951294,287.966766 
	C912.549866,296.570435 925.610352,317.462799 927.495728,329.743866 
	C935.332092,332.641022 942.059082,332.899017 946.309937,330.163666 
	C945.238281,328.721497 944.245667,327.251007 943.119446,325.891144 
	C932.085693,312.567749 921.245911,299.073456 909.854553,286.062347 
	C906.207520,281.896790 905.616272,278.799774 909.415833,274.906708 
	C912.545959,271.699524 911.951355,268.825043 908.604126,266.209534 
	C907.559814,265.393494 906.572571,264.498840 905.490906,263.737122 
	C901.242615,260.745636 899.509155,260.932373 896.903931,265.605988 
	C893.395142,271.900574 890.208252,278.383698 887.097107,284.888214 
	C884.000427,291.362549 881.168335,297.963470 877.911621,305.193939 
	C870.174438,297.453003 863.166931,290.396057 856.100769,283.398438 
	C853.694031,281.015076 853.445496,278.718719 855.668274,276.052429 
	C860.786499,269.912872 857.379395,267.000732 849.622375,266.072296 
	C843.246094,265.309052 840.680115,270.792084 838.281860,274.986725 
	C830.124634,289.253784 822.442993,303.796783 814.787659,318.343811 
	C813.033020,321.678162 811.037415,323.705475 806.350403,322.993744 
M535.006348,122.581421 
	C535.006348,120.121986 535.006348,117.662544 535.006348,115.241936 
	C527.842651,114.787834 508.500793,124.427551 506.159668,129.386246 
	C510.415314,133.157578 513.740967,128.642746 518.145081,127.989861 
	C518.430420,130.400284 518.978149,132.784348 518.953064,135.162399 
	C518.697205,159.461853 518.325684,183.760071 518.044983,208.059311 
	C517.990845,212.743927 519.885010,214.194199 524.208862,212.657257 
	C527.784180,211.386414 531.281250,209.827347 534.647705,208.078033 
	C535.674011,207.544754 536.831909,205.918152 536.772034,204.857635 
	C536.354126,197.459305 535.893982,190.044128 534.939636,182.700317 
	C533.810669,174.012650 537.598450,167.869904 544.274963,163.146545 
	C548.712097,160.007492 553.218445,156.825043 558.081848,154.460281 
	C567.177368,150.037811 573.178650,152.472488 577.243408,161.845459 
	C584.033936,177.503632 581.897217,192.144623 571.824707,205.764618 
	C569.320007,209.151443 566.814697,212.537857 564.309692,215.924469 
	C564.684448,216.415451 565.059204,216.906433 565.433899,217.397415 
	C567.396790,216.623810 569.761169,216.303406 571.244995,214.989029 
	C575.211487,211.475571 579.181641,207.838913 582.467163,203.707901 
	C592.253174,191.403610 597.785583,177.817612 593.959717,161.668365 
	C591.059998,149.428055 584.444885,144.057495 572.040466,143.966125 
	C562.031128,143.892426 554.068604,148.725586 546.360168,154.254883 
	C543.037598,156.638275 539.804443,159.146408 536.530640,161.597855 
	C536.022461,161.449768 535.514221,161.301697 535.006042,161.153610 
	C535.006042,148.621964 535.006042,136.090332 535.006348,122.581421 
M408.318878,143.455521 
	C403.903687,148.305283 398.880157,152.740570 395.223816,158.107315 
	C390.405304,165.179855 386.896820,173.131058 382.361450,180.415833 
	C379.822723,184.493576 378.426086,184.194702 376.170166,179.951080 
	C371.501617,171.168976 366.976288,162.310486 362.283295,153.541611 
	C354.977600,139.890884 354.917572,139.848602 340.230621,144.898666 
	C337.495148,145.839233 334.919983,147.369476 332.474274,148.943665 
	C331.851013,149.344849 331.506836,151.271667 331.925598,151.934677 
	C332.502655,152.848328 333.956207,153.798645 334.982544,153.744904 
	C343.172974,153.316040 343.205688,153.226181 346.827393,160.466415 
	C351.937103,170.681274 356.615845,181.131775 362.147644,191.110779 
	C370.586365,206.333664 370.828857,206.517502 359.151978,219.474701 
	C352.133484,227.262756 344.937744,234.892227 337.988800,242.740982 
	C336.723846,244.169739 336.266174,246.313278 335.435822,248.126877 
	C337.364563,248.753845 339.272278,249.829163 341.226135,249.920792 
	C346.377838,250.162399 351.553497,250.089523 356.711365,249.907150 
	C358.831543,249.832184 361.079437,249.498627 363.001526,248.665283 
	C365.427490,247.613464 366.436920,245.967072 363.375397,244.050186 
	C357.933075,240.642624 357.531738,239.435867 361.728546,234.652618 
	C374.876587,219.667343 384.514832,202.611008 393.664612,184.972092 
	C400.827759,171.162979 405.255188,155.050583 420.024841,146.138367 
	C421.720490,145.115219 422.150330,142.194107 418.803650,142.103760 
	C415.559570,142.016159 412.293427,142.743317 408.318878,143.455521 
M647.021118,321.707458 
	C647.337769,326.885101 651.157104,329.697937 655.200195,330.655579 
	C664.986267,332.973480 674.876709,333.765289 683.831238,327.233643 
	C687.237244,324.749176 691.043640,322.813599 694.806030,320.544373 
	C696.575012,323.191162 697.714844,325.469482 699.389099,327.243256 
	C701.124512,329.081848 703.262756,331.558624 705.426819,331.779877 
	C711.475952,332.398285 717.629395,331.995087 724.865662,331.995087 
	C723.690308,330.147400 723.280457,328.608643 722.405945,328.270050 
	C715.478577,325.587921 712.809692,319.420319 709.951660,313.426544 
	C707.176453,307.606354 704.988037,301.465881 701.793640,295.895111 
	C696.377136,286.449127 690.565857,277.209595 684.467224,268.189789 
	C683.087158,266.148773 679.942566,264.440918 677.446899,264.187408 
	C671.673950,263.601044 665.798401,263.909698 659.971375,264.084930 
	C658.985474,264.114532 658.033875,265.288086 657.066467,265.933167 
	C657.891052,266.612854 658.714294,267.879639 659.540405,267.881561 
	C667.990967,267.901123 671.238831,274.269684 674.867676,280.180908 
	C676.644836,283.075775 676.179382,285.431549 673.871277,288.176025 
	C664.796692,298.966095 656.023865,310.010040 647.021118,321.707458 
M617.056885,330.749664 
	C630.949890,325.575928 631.627258,325.083527 631.495483,319.821503 
	C629.702820,320.093628 627.933777,320.309204 626.186035,320.637543 
	C621.351929,321.545898 616.563599,322.834625 611.690796,323.374176 
	C598.298462,324.856995 586.919495,312.978729 589.487793,300.028595 
	C599.772522,299.588287 610.050659,298.072815 620.503235,300.627411 
	C623.213623,301.289886 627.005737,299.091095 629.796448,297.382507 
	C632.175476,295.925995 631.125061,293.888336 628.667358,293.149536 
	C627.437927,292.779938 626.024048,292.995972 624.693604,292.994843 
	C614.706543,292.986511 604.719238,293.028015 594.732422,292.975220 
	C589.070984,292.945312 588.116821,291.494995 590.824097,286.391327 
	C592.431458,283.361145 594.330322,280.280060 596.783691,277.940887 
	C605.973755,269.178650 617.057129,269.673187 626.293213,278.710083 
	C627.032104,279.433044 629.404358,279.686493 630.021118,279.103638 
	C631.704651,277.512726 634.221802,275.079681 633.899048,273.489807 
	C633.401611,271.039520 631.272217,267.965912 629.033936,266.985077 
	C617.943298,262.125061 606.594910,262.972290 595.414673,267.021820 
	C578.217773,273.250641 569.092163,293.115692 575.196533,310.825409 
	C580.579956,326.443573 600.151489,336.033600 617.056885,330.749664 
M997.082947,290.120453 
	C989.618286,289.769958 982.124573,289.699890 974.703186,288.931335 
	C971.722534,288.622681 968.900757,286.779968 966.006653,285.635468 
	C967.525085,282.712280 968.895203,279.696014 970.640320,276.915100 
	C971.271912,275.908813 972.732117,275.303436 973.932312,274.792328 
	C982.060059,271.331146 990.509583,271.680145 998.867798,273.385620 
	C1003.144165,274.258209 1003.891235,277.126373 1001.587891,280.831726 
	C1001.097107,281.621155 1000.568542,282.387024 999.522095,283.977142 
	C1001.413452,284.137970 1003.226685,284.730133 1003.576233,284.252106 
	C1006.209351,280.650970 1009.819641,277.092834 1010.635132,273.022491 
	C1011.455811,268.926666 1007.269226,266.371948 1003.233582,264.996643 
	C988.838867,260.091064 966.847900,267.595642 958.573181,280.298340 
	C953.390503,288.254486 956.074829,294.906403 965.411133,296.857788 
	C969.780151,297.770935 974.257263,298.157349 978.642761,299.003540 
	C984.777527,300.187225 991.158752,300.836517 996.914612,303.060211 
	C1004.739868,306.083374 1005.014587,313.300720 998.444946,318.447693 
	C990.341309,324.796539 976.193726,322.795715 966.193115,316.693817 
	C960.308289,313.103210 960.362061,312.910675 956.533508,319.036072 
	C955.679382,320.402588 954.926453,321.832336 954.179321,323.141296 
	C962.321960,331.038361 978.434631,334.847565 987.809937,330.446167 
	C998.117371,325.607147 1007.138245,318.795288 1013.939514,309.449219 
	C1017.344849,304.769653 1017.210388,300.576477 1012.495972,297.338867 
	C1008.092712,294.314941 1002.823608,292.551819 997.082947,290.120453 
M750.272888,247.993454 
	C742.883240,247.993454 735.493591,247.993454 728.103943,247.993454 
	C727.946716,248.662125 727.789551,249.330811 727.632324,249.999481 
	C729.782593,250.658524 731.898376,251.711960 734.089478,251.903275 
	C740.884827,252.496597 742.062805,253.529541 741.980164,260.405823 
	C741.736511,280.673523 741.397034,300.940094 741.179871,321.208008 
	C741.157227,323.325195 741.714478,325.446716 741.978455,327.569244 
	C742.411804,331.054626 744.425842,332.107483 747.823608,332.064697 
	C759.805420,331.913849 771.805420,332.354401 783.766663,331.835785 
	C788.732300,331.620483 793.674561,329.730255 798.496277,328.190765 
	C799.602600,327.837524 800.168335,325.791199 800.982849,324.524048 
	C799.581055,324.075928 797.968689,322.935364 796.810364,323.287720 
	C786.223083,326.508118 775.466919,325.061005 764.785522,324.566071 
	C758.057373,324.254303 758.025574,323.859100 758.011108,317.036224 
	C757.967285,296.397980 757.955078,275.759613 757.906433,255.121384 
	C757.892334,249.148300 756.861023,248.091095 750.272888,247.993454 
M467.055603,207.758255 
	C469.847046,205.547348 472.638458,203.336426 474.898712,201.546204 
	C472.899811,198.791962 470.231415,196.812607 470.172546,194.758469 
	C469.791321,181.460342 470.012878,168.145782 469.953979,154.836975 
	C469.940674,151.838791 471.022034,150.068405 474.180023,149.919434 
	C480.800629,149.607117 487.427094,149.377380 494.038452,148.926865 
	C498.134674,148.647751 502.294098,148.168381 504.157074,142.361008 
	C501.322937,142.236038 498.955811,141.959641 496.606171,142.066650 
	C492.666962,142.246094 488.742065,142.889374 484.805420,142.947113 
	C475.324707,143.086182 465.805267,142.502823 456.370239,143.175491 
	C449.924622,143.635040 443.520630,145.455322 437.251465,147.214035 
	C434.885559,147.877762 432.951172,150.079803 430.820068,151.580597 
	C431.060089,152.120270 431.300110,152.659943 431.540131,153.199615 
	C437.029205,152.572388 442.530548,152.035706 448.004150,151.294342 
	C454.446625,150.421783 456.294952,152.100555 456.060364,158.272919 
	C455.700623,167.738617 455.319031,177.219421 455.487122,186.684219 
	C455.623962,194.389984 456.553223,202.081665 457.212891,210.868851 
	C460.882843,209.738022 463.619080,208.894913 467.055603,207.758255 
M667.577759,156.059998 
	C660.798706,162.514175 656.550537,170.427689 654.403870,179.456467 
	C651.057312,193.531815 656.386597,205.023636 668.784241,208.353729 
	C682.167419,211.948578 694.684387,209.886871 706.456665,202.888657 
	C707.793640,202.093903 708.548340,200.319839 709.573059,198.999847 
	C709.175598,198.482544 708.778137,197.965240 708.380676,197.447922 
	C705.366394,198.439835 702.279907,199.255219 699.350037,200.453613 
	C685.266113,206.214325 671.023010,199.806610 667.289368,185.938232 
	C662.609497,168.555328 681.877930,147.160538 699.703186,150.077805 
	C701.631775,150.393433 703.394104,151.725418 705.634949,152.773758 
	C703.542297,154.980164 702.045288,156.558548 700.255981,158.445129 
	C707.275513,159.432526 711.609131,156.256958 711.982605,150.509964 
	C712.329956,145.163513 709.737549,143.304932 702.971985,142.925980 
	C689.476379,142.170059 678.229858,147.234436 667.577759,156.059998 
M635.904785,176.498596 
	C635.938171,166.843689 635.817627,157.184601 636.079224,147.535889 
	C636.187134,143.553574 634.369324,142.074615 630.839233,142.021973 
	C626.346069,141.955002 621.832397,141.805893 617.363098,142.151260 
	C614.785156,142.350510 612.277100,143.454987 609.737610,144.152008 
	C609.829895,144.694260 609.922241,145.236511 610.014587,145.778748 
	C612.550049,146.184601 615.214966,146.240448 617.577576,147.113922 
	C619.278748,147.742874 621.778320,149.388077 621.859009,150.706268 
	C622.364075,158.957275 622.385925,167.243805 622.381897,175.518494 
	C622.377014,185.501175 622.085754,195.484314 622.140198,205.466049 
	C622.156250,208.415573 623.604248,210.433380 627.179565,210.044449 
	C631.801147,209.541687 636.468567,209.437164 641.076050,208.846848 
	C642.230347,208.698959 643.230652,207.349319 644.301758,206.551987 
	C644.497009,205.996124 644.692200,205.440247 644.887451,204.884369 
	C635.976074,207.064362 636.842346,201.641586 636.700562,196.869873 
	C636.508606,190.410339 636.175049,183.955002 635.904785,176.498596 
M547.939148,353.406952 
	C551.987305,357.320068 556.035461,361.233154 560.604004,365.649323 
	C560.604004,353.407959 560.604004,342.361176 560.604004,331.372070 
	C555.929749,335.366669 551.633118,339.410828 546.949768,342.942169 
	C541.665894,346.926300 541.616760,349.307892 547.939148,353.406952 
M496.032867,311.457245 
	C502.742493,306.208252 510.851746,302.325378 514.369385,293.388275 
	C505.886230,292.640259 484.516083,310.786804 480.866272,322.498535 
	C485.752197,318.994019 490.638153,315.489532 496.032867,311.457245 
M481.496613,390.998474 
	C480.074646,389.071777 478.652649,387.145081 477.230682,385.218414 
	C476.652252,385.643372 476.073792,386.068359 475.495361,386.493317 
	C475.495361,391.271027 475.495361,396.048767 475.495361,400.670166 
	C480.645721,400.670166 485.654022,400.670166 491.522369,400.670166 
	C487.937164,397.217834 484.967896,394.358582 481.496613,390.998474 
M478.403046,243.000793 
	C474.117676,243.000793 469.832306,243.000793 465.027832,243.000793 
	C466.770721,245.985825 468.163849,248.829819 470.047821,251.299316 
	C470.564789,251.976929 472.862274,252.066528 473.809875,251.513306 
	C478.139771,248.985458 482.280121,246.132996 487.098358,243.000793 
	C484.122314,243.000793 481.737579,243.000793 478.403046,243.000793 
z"/>
<path fill="#FFFFFF" opacity="1.000000" stroke="none" 
	d="
M1201.000000,9.508951 
	C803.902039,10.000000 406.804047,10.000000 9.352633,10.000000 
	C9.352633,155.925507 9.352633,301.765167 9.352633,448.000763 
	C406.285858,448.000763 803.174316,448.000763 1200.531372,448.000366 
	C1201.000000,548.985962 1201.000000,649.971863 1201.000000,750.978882 
	C801.069763,750.978882 401.139526,750.978882 1.104636,750.978882 
	C1.104636,501.104614 1.104636,251.209152 1.104636,1.156850 
	C400.999939,1.156850 801.000000,1.156850 1201.000000,1.156850 
	C1201.000000,3.685399 1201.000000,6.351651 1201.000000,9.508951 
z"/>
<path fill="#FDFDFD" opacity="1.000000" stroke="none" 
	d="
M1059.515381,243.627594 
	C1049.450928,211.414719 1027.913208,190.285828 998.012695,177.024872 
	C994.888794,175.639404 993.816284,174.287979 994.052246,170.888016 
	C994.797791,160.140671 993.285950,149.636948 989.564697,139.496872 
	C984.685974,126.203133 975.991089,116.059860 963.371887,108.789856 
	C970.351746,103.141983 978.004028,100.549393 986.208496,100.166672 
	C995.338867,99.740768 1004.507263,100.161484 1013.659058,100.154076 
	C1025.793335,100.144249 1037.927612,100.076202 1050.061890,100.034645 
	C1051.504517,100.029701 1052.947144,100.033974 1055.835693,100.033974 
	C1043.073242,106.530281 1030.645386,110.923210 1021.548889,121.127357 
	C1023.039734,120.602562 1024.560181,120.149055 1026.016846,119.542259 
	C1047.904663,110.424576 1070.513306,104.784874 1094.406250,106.141235 
	C1113.913574,107.248650 1131.357910,113.811333 1146.968384,127.345123 
	C1126.711670,126.535400 1106.896362,123.791351 1090.298096,139.988831 
	C1142.606934,130.501434 1174.666260,154.149750 1189.221436,182.074646 
	C1171.160767,176.389618 1153.513794,168.445221 1134.043945,176.108078 
	C1165.984009,185.575333 1183.173096,207.142609 1187.487427,238.894302 
	C1181.716919,233.965317 1176.151367,228.023621 1169.480957,223.845764 
	C1162.725708,219.614822 1154.878052,217.128220 1147.255371,214.465561 
	C1178.595825,249.454147 1177.686401,290.477936 1171.174561,332.707916 
	C1167.026001,316.153229 1164.266113,299.046478 1149.949585,285.440491 
	C1153.381836,330.058350 1135.810303,363.635773 1101.308350,390.059052 
	C1101.308350,379.881378 1101.308350,370.383057 1101.308350,360.421387 
	C1048.307373,416.592163 982.102722,426.071625 910.361694,416.667816 
	C915.661377,415.813568 920.965881,414.987610 926.260071,414.100525 
	C966.739807,407.317566 1002.063782,390.485962 1029.771362,359.661316 
	C1048.589722,338.726013 1060.180054,314.292664 1063.286011,285.958160 
	C1064.857056,271.626953 1063.296875,257.769836 1059.515381,243.627594 
z"/>
<path fill="#FCFCFC" opacity="1.000000" stroke="none" 
	d="
M922.488892,184.684235 
	C931.392395,183.794449 940.284546,182.382690 949.203247,182.187286 
	C955.817871,182.042358 961.707092,184.939423 966.809143,191.459839 
	C941.603271,185.402145 919.924438,191.696259 899.823181,204.896393 
	C899.414856,204.777237 899.044006,204.768341 898.807129,204.585678 
	C885.091797,194.005753 876.652832,194.355408 864.143555,206.228058 
	C858.465271,211.617432 853.142639,217.389908 847.348877,222.647156 
	C840.135010,229.193192 831.921021,233.585754 821.705383,233.104919 
	C811.721619,232.635010 805.792419,228.286530 803.721191,218.429733 
	C801.620056,208.430618 803.702881,198.927994 808.982544,189.340439 
	C811.955750,195.575958 810.926941,202.780304 816.866638,207.533737 
	C823.134827,202.021088 823.627686,194.272079 825.839722,186.146912 
	C827.104675,188.084442 828.109741,189.371765 828.849121,190.796906 
	C834.101746,200.921036 841.243042,203.259354 849.313538,195.423355 
	C857.173279,187.791931 863.441467,178.426178 869.843628,169.420380 
	C874.537109,162.818054 878.317505,155.566605 882.718628,148.249115 
	C875.293579,140.808456 865.677734,137.385742 855.500366,137.181976 
	C844.610962,136.963959 833.690247,138.746460 822.770691,139.465363 
	C813.194702,140.095795 803.526733,141.390900 794.041138,140.628693 
	C787.406006,140.095535 781.009644,136.590973 774.587952,134.440750 
	C774.587952,138.516953 774.587952,143.834412 774.587952,149.151886 
	C774.291809,149.257538 773.995605,149.363205 773.699463,149.468857 
	C772.760010,147.153702 771.919312,144.791916 770.854126,142.536133 
	C769.722351,140.139221 768.584595,137.699646 767.083801,135.531815 
	C763.807739,130.799744 760.689453,130.926849 758.295837,136.115616 
	C756.449219,140.118774 755.343323,144.463654 753.645020,149.425140 
	C748.296936,139.592560 743.624146,130.056656 745.273804,119.084099 
	C746.640564,109.993912 753.230042,104.624405 761.562683,102.182716 
	C768.622009,100.114128 776.038513,98.603485 783.364502,98.251198 
	C796.297424,97.629311 809.281860,98.077087 822.608887,98.077087 
	C822.768738,85.544487 832.070190,80.113922 843.086853,77.205185 
	C856.471130,73.671326 870.118713,71.133003 883.655212,68.176979 
	C905.528381,63.400421 926.063416,55.974289 941.788025,38.955002 
	C942.185486,38.524899 942.895203,38.383308 943.699646,37.989433 
	C943.087891,41.760937 942.529358,45.204140 941.970825,48.647339 
	C951.407349,34.859489 966.535461,33.613510 980.648926,29.944347 
	C989.988770,27.516209 999.096008,24.157072 1008.219666,20.964100 
	C1010.045105,20.325253 1011.473694,18.552603 1013.995361,16.596985 
	C1013.535217,18.341076 1013.443054,19.462444 1012.964844,20.383202 
	C1008.536377,28.908405 1001.409973,34.329079 992.657410,37.850147 
	C987.585510,39.890541 982.422668,41.741253 977.483521,44.065712 
	C971.827637,46.727539 968.490417,51.238213 968.095886,58.730713 
	C974.674500,52.060795 981.863037,47.869938 990.445618,46.801834 
	C995.046448,46.229256 999.742798,46.100132 1004.383362,46.229328 
	C1022.250916,46.726784 1039.791626,44.382938 1056.901367,39.523403 
	C1062.448608,37.947910 1067.387207,34.229542 1073.954834,30.782427 
	C1070.026245,35.549240 1067.206421,40.188858 1063.272583,43.507854 
	C1052.917969,52.243992 1040.045288,54.521935 1027.065308,55.825226 
	C1017.292786,56.806469 1007.460510,57.184586 997.660034,57.902519 
	C995.682434,58.047394 993.583313,58.175266 991.809082,58.937065 
	C990.382812,59.549435 989.362915,61.108250 988.162720,62.247078 
	C989.502014,63.573322 990.824646,64.917389 992.199646,66.205521 
	C992.393433,66.387016 992.843506,66.295090 993.174988,66.329460 
	C1022.013489,69.319977 1050.691162,69.184090 1078.688110,60.548744 
	C1094.372192,55.711182 1108.391113,48.052605 1117.462402,32.752243 
	C1118.505737,56.835716 1105.840576,74.700836 1086.108643,81.100479 
	C1069.646240,86.439743 1052.668945,86.252342 1035.673096,86.486046 
	C1017.872620,86.730812 1000.061035,87.070396 982.290405,88.033234 
	C976.963745,88.321846 971.568115,90.374832 966.536987,92.433029 
	C956.805969,96.413826 951.357483,102.976540 948.088257,113.319679 
	C973.435669,126.890442 982.802368,139.360886 980.786316,156.588699 
	C973.737793,153.937485 966.783752,150.770172 959.518616,148.688766 
	C934.013550,141.381699 913.433350,148.470261 898.604004,169.523621 
	C898.166443,170.250595 898.049683,170.554993 897.697388,171.044281 
	C897.613281,171.397995 897.764832,171.566833 897.916321,171.735687 
	C897.897339,171.397369 897.878357,171.059036 898.034424,171.047913 
	C898.623657,171.187057 899.037964,170.999039 899.452209,170.811035 
	C914.142395,162.526382 929.465454,156.488937 946.781311,158.075775 
	C963.751465,159.630905 976.234863,168.625473 986.995117,182.827774 
	C964.467163,172.958176 943.068054,166.012650 921.633667,183.597198 
	C921.631104,184.238922 922.059998,184.461578 922.488892,184.684235 
M891.734436,99.744057 
	C874.144775,90.924080 852.310181,97.541534 845.360046,113.907410 
	C851.700073,115.277969 858.015076,116.643135 864.584473,118.063286 
	C867.400024,107.413322 875.393127,103.510811 885.218933,102.138359 
	C887.514038,101.817780 889.871460,101.955223 892.189575,101.757591 
	C892.326416,101.745926 892.368286,100.620010 891.734436,99.744057 
z"/>
<path fill="#FCFCFC" opacity="1.000000" stroke="none" 
	d="
M166.323181,165.740311 
	C151.609818,145.504028 135.403717,127.072029 117.034904,108.707817 
	C113.885414,113.435829 110.905701,116.996147 108.923111,121.044762 
	C100.755928,137.722916 93.326698,154.775589 84.765305,171.243011 
	C78.887817,182.548080 72.006836,193.400223 64.793503,203.919342 
	C59.416630,211.760361 47.966164,212.555603 40.496975,206.732681 
	C33.729218,201.456573 26.894073,196.266907 19.926071,189.766022 
	C22.644308,189.512970 25.428684,188.757523 28.067871,189.104965 
	C34.868641,190.000229 38.341068,187.192429 41.303822,180.989990 
	C54.936325,152.450867 68.776299,123.996040 83.325127,95.916817 
	C89.067757,84.833534 96.535400,74.584648 103.777451,64.352074 
	C113.745888,50.267296 126.500153,55.970745 136.034454,64.410164 
	C137.139694,65.388481 137.393860,68.459671 136.759003,70.047279 
	C135.230927,73.868683 133.316818,77.663506 130.875122,80.963470 
	C126.643585,86.682411 127.681740,91.487808 132.078033,96.441124 
	C138.487701,103.662895 144.528793,111.216263 151.039230,118.343056 
	C160.343735,128.528427 169.930435,138.456009 180.387741,149.544632 
	C182.889282,145.081207 185.238968,141.612167 186.884094,137.836151 
	C197.715347,112.975647 208.265549,87.991837 219.233795,63.192589 
	C221.406967,58.279011 224.853500,53.891621 227.978180,49.448185 
	C230.266373,46.194271 233.794891,45.839951 236.660858,48.150642 
	C242.320297,52.713558 247.727066,57.627151 252.908585,62.730530 
	C255.683914,65.464020 255.567917,68.844139 253.331772,72.262726 
	C249.423599,78.237503 245.758926,84.371559 241.897552,90.591370 
	C256.476501,109.160416 271.068359,127.734070 285.647095,146.318024 
	C300.126068,164.774841 314.600861,183.234970 329.056488,201.710037 
	C332.377594,205.954559 331.796234,208.102798 326.457642,209.181183 
	C313.419342,211.814957 301.271942,208.227936 289.045258,203.489822 
	C291.993652,192.692001 287.801910,183.777420 282.849274,175.035629 
	C271.103668,154.303726 257.922302,134.585281 242.087006,116.701553 
	C233.210480,106.676781 231.772308,106.499046 226.394257,118.683319 
	C219.105164,135.197235 212.871429,152.173599 205.850464,168.810410 
	C201.209167,179.808365 195.984238,190.560181 191.008179,201.416489 
	C190.594879,202.318176 190.214066,203.279724 189.600479,204.037109 
	C186.435959,207.943192 179.421707,207.711319 172.626648,203.539505 
	C165.517273,199.174683 163.492767,194.947220 165.940170,189.571884 
	C166.349869,188.672012 166.598618,187.634476 167.210037,186.900818 
	C173.191544,179.723373 172.387894,172.806107 166.323181,165.740311 
z"/>
<path fill="#FCFCFC" opacity="1.000000" stroke="none" 
	d="
M481.300842,335.278625 
	C493.690247,326.101471 506.058502,317.474609 517.816528,308.083649 
	C522.227417,304.560730 525.986328,299.679291 528.704773,294.688538 
	C535.027405,283.080963 526.092163,263.519012 513.508484,261.838593 
	C508.438324,261.161530 502.495209,262.520477 497.750488,264.698212 
	C478.761444,273.413879 464.266174,287.375763 454.057434,305.531219 
	C451.972595,309.238892 451.017578,314.015045 450.920349,318.329681 
	C450.563843,334.152832 450.670624,349.990417 450.842133,365.819946 
	C450.933777,374.276703 451.802246,382.732056 451.687927,391.179474 
	C451.656372,393.512543 449.895325,397.153412 448.008759,397.913696 
	C435.906982,402.790894 423.516754,401.697418 410.856079,399.242096 
	C413.159271,393.541382 416.245605,388.854431 416.833527,383.872620 
	C418.366486,370.883057 419.327179,357.773987 419.569702,344.695038 
	C420.060699,318.215027 419.934082,291.723419 420.043976,265.236511 
	C420.078217,256.984039 418.169403,254.529083 410.299255,251.959778 
	C407.423523,251.020966 404.681122,249.673859 401.877899,248.513016 
	C401.839417,247.911255 401.800934,247.309479 401.762451,246.707718 
	C404.588440,245.476089 407.439392,243.147202 410.235962,243.210724 
	C420.131470,243.435547 430.021729,244.340118 439.884521,245.292145 
	C443.007568,245.593597 448.560181,253.625793 448.934509,257.425385 
	C449.681915,265.011780 450.351715,272.608612 451.294281,280.171112 
	C451.535339,282.105072 452.676086,283.926880 453.079010,284.964569 
	C460.970490,277.594208 468.311523,270.162720 476.254730,263.443085 
	C491.248779,250.758636 507.992828,242.385284 528.407654,242.861420 
	C537.272400,243.068176 543.829346,246.685623 548.443481,253.657791 
	C557.197998,266.886383 557.666626,280.708862 549.714600,294.521271 
	C543.001770,306.181244 532.737244,314.482910 522.311829,322.566833 
	C517.709595,326.135437 513.100769,329.701782 508.375549,333.103271 
	C505.356476,335.276611 505.139374,337.432648 507.758362,339.973389 
	C517.198975,349.131989 526.528992,358.408905 536.128540,367.397858 
	C541.467651,372.397308 547.048462,377.200592 552.940247,381.519318 
	C555.542297,383.426636 559.132385,384.114655 562.373230,384.987946 
	C566.094238,385.990692 569.925293,386.585175 573.708618,387.356995 
	C573.778259,387.920135 573.847900,388.483276 573.917542,389.046417 
	C572.223511,390.104767 570.653870,391.520905 568.814209,392.160156 
	C560.390259,395.087280 551.948425,397.992432 543.397705,400.514526 
	C537.829346,402.156952 532.283264,401.029388 527.797485,397.431702 
	C516.392029,388.284271 504.986237,379.105560 494.078217,369.381165 
	C487.389893,363.418579 481.522003,356.515289 475.467529,349.868774 
	C470.704071,344.639526 470.796997,344.488586 476.001831,339.579163 
	C477.564514,338.105133 479.352417,336.869843 481.300842,335.278625 
z"/>
<path fill="#FAFAFA" opacity="1.000000" stroke="none" 
	d="
M806.724854,322.993225 
	C811.037415,323.705475 813.033020,321.678162 814.787659,318.343811 
	C822.442993,303.796783 830.124634,289.253784 838.281860,274.986725 
	C840.680115,270.792084 843.246094,265.309052 849.622375,266.072296 
	C857.379395,267.000732 860.786499,269.912872 855.668274,276.052429 
	C853.445496,278.718719 853.694031,281.015076 856.100769,283.398438 
	C863.166931,290.396057 870.174438,297.453003 877.911621,305.193939 
	C881.168335,297.963470 884.000427,291.362549 887.097107,284.888214 
	C890.208252,278.383698 893.395142,271.900574 896.903931,265.605988 
	C899.509155,260.932373 901.242615,260.745636 905.490906,263.737122 
	C906.572571,264.498840 907.559814,265.393494 908.604126,266.209534 
	C911.951355,268.825043 912.545959,271.699524 909.415833,274.906708 
	C905.616272,278.799774 906.207520,281.896790 909.854553,286.062347 
	C921.245911,299.073456 932.085693,312.567749 943.119446,325.891144 
	C944.245667,327.251007 945.238281,328.721497 946.309937,330.163666 
	C942.059082,332.899017 935.332092,332.641022 927.495728,329.743866 
	C925.610352,317.462799 912.549866,296.570435 900.951294,287.966766 
	C898.945496,291.973663 896.883118,295.797791 895.086365,299.742920 
	C891.043457,308.619965 887.204529,317.590179 883.134033,326.454254 
	C881.319580,330.405518 878.233521,331.190948 874.252319,329.041565 
	C870.684326,327.115265 869.006287,324.847870 871.771667,320.731506 
	C872.735596,319.296600 873.059265,316.090698 872.130676,314.938324 
	C864.973511,306.056305 857.436646,297.480225 849.112854,287.751862 
	C846.577026,292.007538 844.754089,294.838196 843.156189,297.790680 
	C838.103943,307.125824 833.536194,316.750793 828.016846,325.797455 
	C823.015137,333.995728 818.731201,334.308044 810.945251,328.534790 
	C809.083679,327.154449 807.131104,325.896851 805.220337,324.582764 
	C805.597046,324.053070 805.973755,323.523407 806.724854,322.993225 
z"/>
<path fill="#FBFBFB" opacity="1.000000" stroke="none" 
	d="
M535.006226,123.070053 
	C535.006042,136.090332 535.006042,148.621964 535.006042,161.153610 
	C535.514221,161.301697 536.022461,161.449768 536.530640,161.597855 
	C539.804443,159.146408 543.037598,156.638275 546.360168,154.254883 
	C554.068604,148.725586 562.031128,143.892426 572.040466,143.966125 
	C584.444885,144.057495 591.059998,149.428055 593.959717,161.668365 
	C597.785583,177.817612 592.253174,191.403610 582.467163,203.707901 
	C579.181641,207.838913 575.211487,211.475571 571.244995,214.989029 
	C569.761169,216.303406 567.396790,216.623810 565.433899,217.397415 
	C565.059204,216.906433 564.684448,216.415451 564.309692,215.924469 
	C566.814697,212.537857 569.320007,209.151443 571.824707,205.764618 
	C581.897217,192.144623 584.033936,177.503632 577.243408,161.845459 
	C573.178650,152.472488 567.177368,150.037811 558.081848,154.460281 
	C553.218445,156.825043 548.712097,160.007492 544.274963,163.146545 
	C537.598450,167.869904 533.810669,174.012650 534.939636,182.700317 
	C535.893982,190.044128 536.354126,197.459305 536.772034,204.857635 
	C536.831909,205.918152 535.674011,207.544754 534.647705,208.078033 
	C531.281250,209.827347 527.784180,211.386414 524.208862,212.657257 
	C519.885010,214.194199 517.990845,212.743927 518.044983,208.059311 
	C518.325684,183.760071 518.697205,159.461853 518.953064,135.162399 
	C518.978149,132.784348 518.430420,130.400284 518.145081,127.989861 
	C513.740967,128.642746 510.415314,133.157578 506.159668,129.386246 
	C508.500793,124.427551 527.842651,114.787834 535.006348,115.241936 
	C535.006348,117.662544 535.006348,120.121986 535.006226,123.070053 
z"/>
<path fill="#FBFBFB" opacity="1.000000" stroke="none" 
	d="
M408.677917,143.284088 
	C412.293427,142.743317 415.559570,142.016159 418.803650,142.103760 
	C422.150330,142.194107 421.720490,145.115219 420.024841,146.138367 
	C405.255188,155.050583 400.827759,171.162979 393.664612,184.972092 
	C384.514832,202.611008 374.876587,219.667343 361.728546,234.652618 
	C357.531738,239.435867 357.933075,240.642624 363.375397,244.050186 
	C366.436920,245.967072 365.427490,247.613464 363.001526,248.665283 
	C361.079437,249.498627 358.831543,249.832184 356.711365,249.907150 
	C351.553497,250.089523 346.377838,250.162399 341.226135,249.920792 
	C339.272278,249.829163 337.364563,248.753845 335.435822,248.126862 
	C336.266174,246.313278 336.723846,244.169739 337.988800,242.740982 
	C344.937744,234.892227 352.133484,227.262756 359.151978,219.474701 
	C370.828857,206.517502 370.586365,206.333664 362.147644,191.110779 
	C356.615845,181.131775 351.937103,170.681274 346.827393,160.466415 
	C343.205688,153.226181 343.172974,153.316040 334.982544,153.744904 
	C333.956207,153.798645 332.502655,152.848328 331.925598,151.934677 
	C331.506836,151.271667 331.851013,149.344849 332.474274,148.943665 
	C334.919983,147.369476 337.495148,145.839233 340.230621,144.898666 
	C354.917572,139.848602 354.977600,139.890884 362.283295,153.541611 
	C366.976288,162.310486 371.501617,171.168976 376.170166,179.951080 
	C378.426086,184.194702 379.822723,184.493576 382.361450,180.415833 
	C386.896820,173.131058 390.405304,165.179855 395.223816,158.107315 
	C398.880157,152.740570 403.903687,148.305283 408.677917,143.284088 
z"/>
<path fill="#FAFAFA" opacity="1.000000" stroke="none" 
	d="
M647.080078,321.333588 
	C656.023865,310.010040 664.796692,298.966095 673.871277,288.176025 
	C676.179382,285.431549 676.644836,283.075775 674.867676,280.180908 
	C671.238831,274.269684 667.990967,267.901123 659.540405,267.881561 
	C658.714294,267.879639 657.891052,266.612854 657.066467,265.933167 
	C658.033875,265.288086 658.985474,264.114532 659.971375,264.084930 
	C665.798401,263.909698 671.673950,263.601044 677.446899,264.187408 
	C679.942566,264.440918 683.087158,266.148773 684.467224,268.189789 
	C690.565857,277.209595 696.377136,286.449127 701.793640,295.895111 
	C704.988037,301.465881 707.176453,307.606354 709.951660,313.426544 
	C712.809692,319.420319 715.478577,325.587921 722.405945,328.270050 
	C723.280457,328.608643 723.690308,330.147400 724.865662,331.995087 
	C717.629395,331.995087 711.475952,332.398285 705.426819,331.779877 
	C703.262756,331.558624 701.124512,329.081848 699.389099,327.243256 
	C697.714844,325.469482 696.575012,323.191162 694.806030,320.544373 
	C691.043640,322.813599 687.237244,324.749176 683.831238,327.233643 
	C674.876709,333.765289 664.986267,332.973480 655.200195,330.655579 
	C651.157104,329.697937 647.337769,326.885101 647.080078,321.333588 
M670.909607,323.655151 
	C677.910583,323.498016 684.054504,320.968689 689.511047,316.729126 
	C690.431213,316.014191 691.710144,314.350586 691.439026,313.728790 
	C688.393921,306.743896 685.077759,299.877167 681.239441,291.713165 
	C675.302124,299.077545 670.330811,304.829193 665.834717,310.931061 
	C660.826965,317.727325 662.030884,320.766083 670.909607,323.655151 
z"/>
<path fill="#F9F9F9" opacity="1.000000" stroke="none" 
	d="
M616.648804,330.843384 
	C600.151489,336.033600 580.579956,326.443573 575.196533,310.825409 
	C569.092163,293.115692 578.217773,273.250641 595.414673,267.021820 
	C606.594910,262.972290 617.943298,262.125061 629.033936,266.985077 
	C631.272217,267.965912 633.401611,271.039520 633.899048,273.489807 
	C634.221802,275.079681 631.704651,277.512726 630.021118,279.103638 
	C629.404358,279.686493 627.032104,279.433044 626.293213,278.710083 
	C617.057129,269.673187 605.973755,269.178650 596.783691,277.940887 
	C594.330322,280.280060 592.431458,283.361145 590.824097,286.391327 
	C588.116821,291.494995 589.070984,292.945312 594.732422,292.975220 
	C604.719238,293.028015 614.706543,292.986511 624.693604,292.994843 
	C626.024048,292.995972 627.437927,292.779938 628.667358,293.149536 
	C631.125061,293.888336 632.175476,295.925995 629.796448,297.382507 
	C627.005737,299.091095 623.213623,301.289886 620.503235,300.627411 
	C610.050659,298.072815 599.772522,299.588287 589.487793,300.028595 
	C586.919495,312.978729 598.298462,324.856995 611.690796,323.374176 
	C616.563599,322.834625 621.351929,321.545898 626.186035,320.637543 
	C627.933777,320.309204 629.702820,320.093628 631.495483,319.821503 
	C631.627258,325.083527 630.949890,325.575928 616.648804,330.843384 
z"/>
<path fill="#F8F8F8" opacity="1.000000" stroke="none" 
	d="
M997.509277,290.177094 
	C1002.823608,292.551819 1008.092712,294.314941 1012.495972,297.338867 
	C1017.210388,300.576477 1017.344849,304.769653 1013.939514,309.449219 
	C1007.138245,318.795288 998.117371,325.607147 987.809937,330.446167 
	C978.434631,334.847565 962.321960,331.038361 954.179321,323.141296 
	C954.926453,321.832336 955.679382,320.402588 956.533508,319.036072 
	C960.362061,312.910675 960.308289,313.103210 966.193115,316.693817 
	C976.193726,322.795715 990.341309,324.796539 998.444946,318.447693 
	C1005.014587,313.300720 1004.739868,306.083374 996.914612,303.060211 
	C991.158752,300.836517 984.777527,300.187225 978.642761,299.003540 
	C974.257263,298.157349 969.780151,297.770935 965.411133,296.857788 
	C956.074829,294.906403 953.390503,288.254486 958.573181,280.298340 
	C966.847900,267.595642 988.838867,260.091064 1003.233582,264.996643 
	C1007.269226,266.371948 1011.455811,268.926666 1010.635132,273.022491 
	C1009.819641,277.092834 1006.209351,280.650970 1003.576233,284.252106 
	C1003.226685,284.730133 1001.413452,284.137970 999.522095,283.977142 
	C1000.568542,282.387024 1001.097107,281.621155 1001.587891,280.831726 
	C1003.891235,277.126373 1003.144165,274.258209 998.867798,273.385620 
	C990.509583,271.680145 982.060059,271.331146 973.932312,274.792328 
	C972.732117,275.303436 971.271912,275.908813 970.640320,276.915100 
	C968.895203,279.696014 967.525085,282.712280 966.006653,285.635468 
	C968.900757,286.779968 971.722534,288.622681 974.703186,288.931335 
	C982.124573,289.699890 989.618286,289.769958 997.509277,290.177094 
z"/>
<path fill="#FBFBFB" opacity="1.000000" stroke="none" 
	d="
M750.742188,247.993469 
	C756.861023,248.091095 757.892334,249.148300 757.906433,255.121384 
	C757.955078,275.759613 757.967285,296.397980 758.011108,317.036224 
	C758.025574,323.859100 758.057373,324.254303 764.785522,324.566071 
	C775.466919,325.061005 786.223083,326.508118 796.810364,323.287720 
	C797.968689,322.935364 799.581055,324.075928 800.982849,324.524048 
	C800.168335,325.791199 799.602600,327.837524 798.496277,328.190765 
	C793.674561,329.730255 788.732300,331.620483 783.766663,331.835785 
	C771.805420,332.354401 759.805420,331.913849 747.823608,332.064697 
	C744.425842,332.107483 742.411804,331.054626 741.978455,327.569244 
	C741.714478,325.446716 741.157227,323.325195 741.179871,321.208008 
	C741.397034,300.940094 741.736511,280.673523 741.980164,260.405823 
	C742.062805,253.529541 740.884827,252.496597 734.089478,251.903275 
	C731.898376,251.711960 729.782593,250.658524 727.632324,249.999481 
	C727.789551,249.330811 727.946716,248.662125 728.103943,247.993454 
	C735.493591,247.993454 742.883240,247.993454 750.742188,247.993469 
z"/>
<path fill="#FAFAFA" opacity="1.000000" stroke="none" 
	d="
M466.705444,207.905029 
	C463.619080,208.894913 460.882843,209.738022 457.212891,210.868851 
	C456.553223,202.081665 455.623962,194.389984 455.487122,186.684219 
	C455.319031,177.219421 455.700623,167.738617 456.060364,158.272919 
	C456.294952,152.100555 454.446625,150.421783 448.004150,151.294342 
	C442.530548,152.035706 437.029205,152.572388 431.540131,153.199615 
	C431.300110,152.659943 431.060089,152.120270 430.820068,151.580597 
	C432.951172,150.079803 434.885559,147.877762 437.251465,147.214035 
	C443.520630,145.455322 449.924622,143.635040 456.370239,143.175491 
	C465.805267,142.502823 475.324707,143.086182 484.805420,142.947113 
	C488.742065,142.889374 492.666962,142.246094 496.606171,142.066650 
	C498.955811,141.959641 501.322937,142.236038 504.157074,142.361008 
	C502.294098,148.168381 498.134674,148.647751 494.038452,148.926865 
	C487.427094,149.377380 480.800629,149.607117 474.180023,149.919434 
	C471.022034,150.068405 469.940674,151.838791 469.953979,154.836975 
	C470.012878,168.145782 469.791321,181.460342 470.172546,194.758469 
	C470.231415,196.812607 472.899811,198.791962 474.898712,201.546204 
	C472.638458,203.336426 469.847046,205.547348 466.705444,207.905029 
z"/>
<path fill="#F8F8F8" opacity="1.000000" stroke="none" 
	d="
M667.841797,155.817963 
	C678.229858,147.234436 689.476379,142.170059 702.971985,142.925980 
	C709.737549,143.304932 712.329956,145.163513 711.982605,150.509964 
	C711.609131,156.256958 707.275513,159.432526 700.255981,158.445129 
	C702.045288,156.558548 703.542297,154.980164 705.634949,152.773758 
	C703.394104,151.725418 701.631775,150.393433 699.703186,150.077805 
	C681.877930,147.160538 662.609497,168.555328 667.289368,185.938232 
	C671.023010,199.806610 685.266113,206.214325 699.350037,200.453613 
	C702.279907,199.255219 705.366394,198.439835 708.380676,197.447922 
	C708.778137,197.965240 709.175598,198.482544 709.573059,198.999847 
	C708.548340,200.319839 707.793640,202.093903 706.456665,202.888657 
	C694.684387,209.886871 682.167419,211.948578 668.784241,208.353729 
	C656.386597,205.023636 651.057312,193.531815 654.403870,179.456467 
	C656.550537,170.427689 660.798706,162.514175 667.841797,155.817963 
z"/>
<path fill="#FAFAFA" opacity="1.000000" stroke="none" 
	d="
M635.903564,176.998230 
	C636.175049,183.955002 636.508606,190.410339 636.700562,196.869873 
	C636.842346,201.641586 635.976074,207.064362 644.887451,204.884369 
	C644.692200,205.440247 644.497009,205.996124 644.301758,206.551987 
	C643.230652,207.349319 642.230347,208.698959 641.076050,208.846848 
	C636.468567,209.437164 631.801147,209.541687 627.179565,210.044449 
	C623.604248,210.433380 622.156250,208.415573 622.140198,205.466049 
	C622.085754,195.484314 622.377014,185.501175 622.381897,175.518494 
	C622.385925,167.243805 622.364075,158.957275 621.859009,150.706268 
	C621.778320,149.388077 619.278748,147.742874 617.577576,147.113922 
	C615.214966,146.240448 612.550049,146.184601 610.014587,145.778748 
	C609.922241,145.236511 609.829895,144.694260 609.737610,144.152008 
	C612.277100,143.454987 614.785156,142.350510 617.363098,142.151260 
	C621.832397,141.805893 626.346069,141.955002 630.839233,142.021973 
	C634.369324,142.074615 636.187134,143.553574 636.079224,147.535889 
	C635.817627,157.184601 635.938171,166.843689 635.903564,176.998230 
z"/>
<path fill="#FFFFFF" opacity="1.000000" stroke="none" 
	d="
M547.663452,353.166229 
	C541.616760,349.307892 541.665894,346.926300 546.949768,342.942169 
	C551.633118,339.410828 555.929749,335.366669 560.604004,331.372070 
	C560.604004,342.361176 560.604004,353.407959 560.604004,365.649323 
	C556.035461,361.233154 551.987305,357.320068 547.663452,353.166229 
z"/>
<path fill="#FFFFFF" opacity="1.000000" stroke="none" 
	d="
M495.778473,311.721130 
	C490.638153,315.489532 485.752197,318.994019 480.866272,322.498535 
	C484.516083,310.786804 505.886230,292.640259 514.369385,293.388275 
	C510.851746,302.325378 502.742493,306.208252 495.778473,311.721130 
z"/>
<path fill="#FFFFFF" opacity="1.000000" stroke="none" 
	d="
M481.747620,391.248901 
	C484.967896,394.358582 487.937164,397.217834 491.522369,400.670166 
	C485.654022,400.670166 480.645721,400.670166 475.495361,400.670166 
	C475.495361,396.048767 475.495361,391.271027 475.495361,386.493317 
	C476.073792,386.068359 476.652252,385.643372 477.230682,385.218414 
	C478.652649,387.145081 480.074646,389.071777 481.747620,391.248901 
z"/>
<path fill="#FFFFFF" opacity="1.000000" stroke="none" 
	d="
M478.877930,243.000793 
	C481.737579,243.000793 484.122314,243.000793 487.098358,243.000793 
	C482.280121,246.132996 478.139771,248.985458 473.809875,251.513306 
	C472.862274,252.066528 470.564789,251.976929 470.047821,251.299316 
	C468.163849,248.829819 466.770721,245.985825 465.027832,243.000793 
	C469.832306,243.000793 474.117676,243.000793 478.877930,243.000793 
z"/>
<path fill="#080809" opacity="1.000000" stroke="none" 
	d="
M892.094360,99.878326 
	C892.368286,100.620010 892.326416,101.745926 892.189575,101.757591 
	C889.871460,101.955223 887.514038,101.817780 885.218933,102.138359 
	C875.393127,103.510811 867.400024,107.413322 864.584473,118.063286 
	C858.015076,116.643135 851.700073,115.277969 845.360046,113.907410 
	C852.310181,97.541534 874.144775,90.924080 892.094360,99.878326 
z"/>
<path fill="#000001" opacity="1.000000" stroke="none" 
	d="
M922.325684,184.458984 
	C922.059998,184.461578 921.631104,184.238922 921.503052,183.912354 
	C921.923462,183.950226 922.042969,184.091980 922.325684,184.458984 
z"/>
<path fill="#000001" opacity="1.000000" stroke="none" 
	d="
M897.859375,170.720718 
	C897.878357,171.059036 897.897339,171.397369 897.916321,171.735687 
	C897.764832,171.566833 897.613281,171.397995 897.673889,171.018066 
	C897.886047,170.806961 897.859375,170.720718 897.859375,170.720718 
z"/>
<path fill="#000001" opacity="1.000000" stroke="none" 
	d="
M899.294189,170.540833 
	C899.037964,170.999039 898.623657,171.187057 898.034424,171.047913 
	C897.859375,170.720718 897.886047,170.806961 897.909546,170.833176 
	C898.049683,170.554993 898.166443,170.250595 898.523926,169.856445 
	C898.888489,169.934677 899.012268,170.102661 899.294189,170.540833 
z"/>
<path fill="#050506" opacity="1.000000" stroke="none" 
	d="
M670.535400,323.529358 
	C662.030884,320.766083 660.826965,317.727325 665.834717,310.931061 
	C670.330811,304.829193 675.302124,299.077545 681.239441,291.713165 
	C685.077759,299.877167 688.393921,306.743896 691.439026,313.728790 
	C691.710144,314.350586 690.431213,316.014191 689.511047,316.729126 
	C684.054504,320.968689 677.910583,323.498016 670.535400,323.529358 
z"/>
</svg>