<svg width="121" height="158" viewBox="0 0 121 158" fill="none" xmlns="http://www.w3.org/2000/svg">
<path d="M94.8191 11.4115C95.0247 11.4108 95.2303 11.41 95.4422 11.4092C96.2021 14.8338 96.5206 18.1923 96.5142 21.69C96.5146 22.0008 96.5146 22.0008 96.515 22.3178C96.5128 25.4781 96.2874 28.4151 95.5207 31.4984C95.4633 31.9537 95.4092 32.4094 95.3582 32.8653C95.0902 34.6724 94.8236 36.1963 93.2439 37.3733C91.3133 38.4939 89.2579 39.3397 87.1437 40.0969C90.5353 38.9124 93.9179 37.705 97.2925 36.4772C97.6312 36.3557 97.97 36.2341 98.3191 36.1089C100.096 35.4587 101.748 34.7572 103.371 33.8098C103.939 33.5352 103.939 33.5352 104.874 33.5318C103.133 38.1492 97.1496 45.5176 92.4693 47.7585C93.2519 48.126 93.781 48.0682 94.651 48.0458C96.1391 48.0075 96.1391 48.0075 96.8326 48.3332C96.4723 49.3712 96.2606 49.4525 95.301 49.9822C94.565 50.3925 94.0229 50.7217 93.4176 51.3001C92.7363 51.4839 92.0476 51.6437 91.3558 51.7878C90.9859 51.8661 90.616 51.9444 90.2348 52.0251C89.95 52.0833 89.6651 52.1415 89.3716 52.2014C91.1543 53.1494 92.6724 53.8226 94.7323 53.9126C95.2971 53.9521 95.2971 53.9521 95.9212 54.2452C95.4834 55.2572 94.9854 55.7029 94.0604 56.3386C92.6706 57.4407 92.4562 58.4543 92.2548 60.1201C92.2396 60.3308 92.2243 60.5414 92.2086 60.7585C92.003 60.7592 91.7974 60.76 91.5856 60.7608C91.5417 61.029 91.4978 61.2973 91.4525 61.5737C91.3225 62.3024 91.1736 63.0042 90.9742 63.7174C90.7686 63.7181 90.563 63.7189 90.3512 63.7197C90.2725 63.937 90.1938 64.1544 90.1128 64.3783C88.6395 67.57 84.8171 69.9271 82.0424 72.0468C81.3323 72.5587 81.3323 72.5587 81.043 73.208C79.9727 73.8103 78.9217 74.373 77.7982 74.8818C76.947 75.4898 76.947 75.4898 76.9006 76.2249C76.9076 76.7365 76.9324 77.2481 76.9723 77.7584C77.0133 78.523 76.9184 79.1413 76.7665 79.8895C76.5651 81.3117 77.1812 82.0904 77.9551 83.2676C78.2811 83.8537 78.2811 83.8537 78.1867 84.6111C77.5585 85.4787 76.907 86.3243 76.2193 87.1504C75.7462 87.7229 75.7462 87.7229 75.496 88.591C75.2905 88.5917 75.0849 88.5925 74.873 88.5933C74.8067 88.7878 74.7404 88.9822 74.6721 89.1826C74.1079 90.389 73.3372 91.4068 72.5325 92.4795C72.3673 92.701 72.2022 92.9224 72.0321 93.1506C69.1721 96.9548 69.1721 96.9548 67.7466 98.3689C67.541 98.3697 67.3354 98.3705 67.1236 98.3712C67.2203 96.811 67.317 95.2508 67.4166 93.6432C66.511 93.6466 65.9938 94.0711 65.3322 94.6217C64.5299 95.6357 64.7366 96.8138 64.8036 98.0268C64.8119 98.3186 64.8202 98.6105 64.8287 98.9112C64.8475 99.5473 64.8705 100.183 64.8972 100.819C64.9534 102.193 64.9854 103.567 65.0192 104.942C65.0466 106.044 65.0771 107.146 65.1078 108.247C65.8238 135.187 65.8238 135.187 60.4554 145.665C60.2502 145.763 60.045 145.862 59.8336 145.963C59.7585 145.647 59.6834 145.331 59.606 145.006C59.327 143.833 59.0477 142.661 58.7684 141.488C58.6477 140.98 58.5269 140.473 58.4063 139.966C58.2327 139.236 58.0589 138.506 57.885 137.776C57.8312 137.55 57.7775 137.324 57.722 137.091C57.488 136.109 57.2464 135.131 56.9838 134.156C56.8833 133.744 56.7844 133.332 56.6869 132.92C56.6383 132.715 56.5898 132.51 56.5397 132.299C56.4772 132.035 56.4148 131.771 56.3504 131.5C56.2994 131.321 56.2484 131.143 56.1959 130.959C55.6982 129.117 55.6311 127.377 55.6441 125.483C55.6437 125.157 55.6433 124.831 55.6429 124.496C55.6421 123.793 55.6427 123.091 55.6443 122.388C55.6461 121.275 55.6424 120.163 55.6369 119.05C55.6215 115.888 55.6088 112.726 55.6169 109.563C55.6218 107.626 55.6136 105.688 55.598 103.75C55.5944 103.013 55.5953 102.276 55.6008 101.539C55.608 100.508 55.5999 99.4788 55.5882 98.4484C55.597 97.9934 55.597 97.9934 55.6059 97.5292C55.5783 96.2845 55.5534 95.4849 54.6962 94.5053C54.0779 93.9921 53.4591 93.5351 52.7736 93.1066C52.7673 93.6359 52.7633 94.1652 52.7604 94.6946C52.7579 94.9893 52.7554 95.2841 52.7529 95.5878C52.7302 96.3519 52.7302 96.3519 53.1001 96.946C53.1144 97.4382 53.1176 97.9309 53.1059 98.4231C52.7975 98.4243 52.4891 98.4254 52.1714 98.4266C51.7352 97.8495 51.3188 97.2587 50.9185 96.6586C50.6119 96.3586 50.3 96.0634 49.9805 95.7758C49.4452 95.1461 48.9911 94.5182 48.5516 93.8238C48.1268 93.1013 48.1268 93.1013 47.4757 92.5353C46.855 91.7845 46.2861 91.0122 45.7339 90.2152C44.3867 88.2999 42.9514 86.4439 41.526 84.5806C41.6378 84.4355 41.7497 84.2904 41.8649 84.1409C43.5674 81.5176 43.2083 78.6761 43.0488 75.712C42.8075 75.6234 42.5662 75.5348 42.3177 75.4435C40.6653 74.8122 39.6155 73.9626 38.3647 72.775C36.7873 71.3948 35.1862 70.0398 33.5594 68.7122C31.9896 67.4244 30.6205 66.0494 29.2987 64.5365C28.9892 64.2451 28.9892 64.2451 28.6734 63.9479C28.4508 63.3516 28.2503 62.7478 28.0628 62.1407C27.951 61.7953 27.8392 61.4499 27.7241 61.0941C27.5461 60.5333 27.3718 59.9713 27.2088 59.4065C26.5364 57.3439 24.8725 56.26 23.0317 55.1058C23.0309 54.9108 23.0301 54.7159 23.0294 54.515C23.3484 54.4746 23.6675 54.4342 23.9963 54.3925C24.4199 54.3383 24.8436 54.284 25.2672 54.2297C25.4769 54.2032 25.6866 54.1768 25.9027 54.1495C27.5938 53.9473 27.5938 53.9473 29.256 53.6056C29.358 53.4103 29.46 53.2149 29.5652 53.0136C29.8732 52.915 30.1812 52.8164 30.4985 52.7147C29.8817 52.717 29.265 52.7193 28.6295 52.7216C28.6287 52.5267 28.628 52.3317 28.6272 52.1308C28.3766 52.1195 28.1259 52.1083 27.8677 52.0967C25.757 51.6133 24.033 50.2053 22.3844 48.9041C22.5369 48.4649 22.5369 48.4649 22.6924 48.0167C23.1556 48.1612 23.1556 48.1612 23.6281 48.3087C24.2184 48.3267 24.8093 48.3294 25.3998 48.3206C25.7094 48.3168 26.019 48.313 26.338 48.309C26.5745 48.3047 26.811 48.3004 27.0546 48.296C26.7852 48.0447 26.7852 48.0447 26.5104 47.7884C25.6879 47.0204 24.8666 46.2513 24.0454 45.482C23.7628 45.2186 23.4803 44.9552 23.1892 44.6837C19.3215 41.0567 19.3215 41.0567 17.9852 39.1711C17.9844 38.9762 17.9837 38.7812 17.9829 38.5803C17.7773 38.581 17.5717 38.5818 17.3599 38.5826C16.8414 37.9256 16.8414 37.9256 16.2636 37.0541C16.073 36.7703 15.8823 36.4865 15.6859 36.1942C15.2211 35.4305 14.8598 34.6916 14.5379 33.8661C16.5226 34.4601 18.4563 35.1387 20.3865 35.8756C20.9344 36.083 21.4824 36.2902 22.0304 36.4973C22.2949 36.5972 22.5594 36.6972 22.8318 36.8001C24.1557 37.2968 25.487 37.7742 26.8194 38.2498C27.6158 38.536 28.4082 38.8307 29.1993 39.1296C29.1986 38.9347 29.1978 38.7397 29.197 38.5388C29.0017 38.4961 28.8064 38.4534 28.6051 38.4094C27.8232 38.209 27.1169 38.0036 26.39 37.6629C25.9386 36.7413 25.9386 36.7413 25.7601 35.8926C25.4511 35.7475 25.4511 35.7475 25.1359 35.5995C24.8895 34.8249 24.8895 34.8249 24.6617 33.8286C24.5804 33.4786 24.4992 33.1285 24.4154 32.7678C24.3398 32.436 24.2643 32.1042 24.1864 31.7624C24.0746 31.3196 23.9626 30.8768 23.8502 30.4342C23.0992 27.2007 22.8239 24.1367 22.8976 20.8361C22.6916 20.7394 22.4857 20.6427 22.2734 20.543C22.479 20.5423 22.6846 20.5415 22.8964 20.5407C22.8879 20.1946 22.8793 19.8484 22.8704 19.4918C22.8234 16.9206 22.8416 14.4883 23.4859 11.971C23.6915 11.9702 23.8971 11.9695 24.1089 11.9687C24.3205 12.4904 24.5298 13.0129 24.7381 13.5358C24.8549 13.8267 24.9717 14.1176 25.092 14.4174C25.3677 15.2138 25.3677 15.2138 25.3711 16.1001C25.5771 16.1968 25.7831 16.2935 25.9953 16.3932C26.2078 16.9094 26.2078 16.9094 26.4088 17.5734C26.8419 18.8795 27.4544 19.9873 28.1981 21.157C28.5081 21.7017 28.5081 21.7017 28.5104 22.2925C28.716 22.2918 28.9216 22.291 29.1335 22.2902C29.3936 22.7457 29.3936 22.7457 29.6591 23.2103C30.3201 24.2952 31.1084 25.2259 32.0105 26.1387C32.1594 26.2912 32.3083 26.4437 32.4618 26.6008C33.567 27.7005 34.7245 28.5624 36.114 29.3294C36.6384 29.6483 36.6384 29.6483 36.9523 30.238C37.4692 30.3463 37.9891 30.443 38.5109 30.5276C38.6141 30.6247 38.7173 30.7219 38.8236 30.8219C38.8454 30.5585 38.8454 30.5585 38.8677 30.2897C39.0424 28.3739 39.3517 26.5025 39.7338 24.6145C39.9394 24.6137 40.145 24.6129 40.3568 24.6121C40.949 25.599 41.3021 26.4012 41.5169 27.5252C42.1716 30.5659 44.2051 33.5677 46.009 36.1131C45.8957 35.8858 45.7823 35.6585 45.6656 35.4243C45.5199 35.1285 45.3741 34.8328 45.224 34.5281C45.0783 34.2338 44.9326 33.9396 44.7825 33.6365C44.4387 32.8692 44.4387 32.8692 44.4364 32.2783C47.3785 32.1774 50.2445 32.5104 53.1609 32.8369C53.1574 31.9594 53.154 31.082 53.1505 30.178C52.7198 30.1431 52.2892 30.1081 51.8456 30.0721C50.7317 29.9613 49.8053 29.771 48.7859 29.3079C48.7848 29.0154 48.7836 28.7229 48.7825 28.4216C52.3436 27.6394 55.8903 27.7755 59.5199 27.8564C60.5622 27.8795 61.6045 27.8977 62.6469 27.915C63.316 27.9274 63.9851 27.9401 64.6542 27.9532C65.1167 27.9616 65.1167 27.9616 65.5885 27.9703C67.2753 28.009 68.9165 28.1193 70.5877 28.3409C70.2797 29.2283 70.2797 29.2283 69.6386 29.5815C68.4585 29.8958 67.4566 29.869 66.2325 29.8342C66.2363 30.8091 66.2401 31.784 66.244 32.7885C66.5675 32.748 66.891 32.7076 67.2243 32.666C71.134 32.1801 71.134 32.1801 73.055 31.9693C73.2919 31.9429 73.5287 31.9165 73.7727 31.8893C74.3396 31.8722 74.3396 31.8722 74.9638 32.1653C74.8621 32.446 74.7604 32.7267 74.6556 33.0158C74.3158 33.8725 74.3158 33.8725 74.35 34.531C75.8717 31.7156 77.236 28.9284 78.3661 25.9486C78.5699 25.4548 78.7749 24.9614 78.9833 24.4692C79.2921 24.5655 79.6008 24.6619 79.919 24.7612C79.9385 24.9359 79.9581 25.1106 79.9782 25.2906C80.1446 26.7502 80.1446 26.7502 80.4191 28.1937C80.6031 29.1214 80.582 30.0212 80.5662 30.9628C80.7712 30.7915 80.9761 30.6201 81.1872 30.4435C81.9266 29.9134 82.5219 29.5685 83.3435 29.1984C86.3203 27.8264 88.4546 25.3631 90.0933 22.6924C90.4997 22.0631 90.4997 22.0631 91.1216 21.7654C91.3438 21.1793 91.5451 20.586 91.7376 19.9905C91.8896 19.6003 92.0448 19.2112 92.2028 18.8232C92.2843 18.6207 92.3658 18.4182 92.4498 18.2095C92.6189 17.7914 92.7892 17.3738 92.9608 16.9566C93.3755 15.9204 93.5879 15.1981 93.5835 14.075C93.7891 14.0743 93.9947 14.0735 94.2065 14.0727C94.25 13.6887 94.2935 13.3046 94.3383 12.909C94.47 11.7452 94.47 11.7452 94.8191 11.4115ZM57.7596 33.8539C56.8768 34.7558 56.3132 35.4821 56.2036 36.747C56.3254 37.5103 56.4672 38.248 56.6347 39.0016C57.0711 40.9868 57.145 43.0069 57.2776 45.0267C57.3284 45.7763 57.3803 46.5259 57.4336 47.2753C57.4554 47.5995 57.4772 47.9236 57.4996 48.2575C57.556 49.0954 57.556 49.0954 57.9004 49.9544C57.9217 50.5354 57.9254 51.1171 57.9189 51.6984C57.911 53.6363 57.9698 55.5652 58.0553 57.5012C58.0697 57.837 58.0841 58.1727 58.0989 58.5187C58.1293 59.2216 58.1601 59.9245 58.1913 60.6274C58.2385 61.698 58.2838 62.7687 58.3289 63.8393C58.3589 64.5266 58.3889 65.2139 58.4191 65.9013C58.4324 66.2179 58.4457 66.5346 58.4593 66.8609C58.4729 67.1617 58.4866 67.4626 58.5006 67.7725C58.512 68.0331 58.5234 68.2938 58.5351 68.5623C58.5835 69.2279 58.6655 69.8915 58.764 70.5521C59.046 72.8278 58.9686 75.1322 58.9679 77.4202C58.9689 77.9587 58.97 78.4971 58.9713 79.0356C58.9738 80.1914 58.9753 81.3471 58.9762 82.5029C58.9776 84.3334 58.9818 86.1639 58.9865 87.9944C58.9993 93.1984 59.0085 98.4024 59.015 103.606C59.0185 106.483 59.0244 109.36 59.0327 112.237C59.0377 114.054 59.04 115.871 59.0402 117.687C59.0409 118.821 59.0444 119.955 59.0485 121.09C59.0499 121.612 59.0502 122.134 59.0493 122.657C59.0451 125.569 59.1715 128.325 59.7758 131.191C59.9814 131.191 60.187 131.19 60.3988 131.189C61.1318 128.413 61.0917 125.687 61.0786 122.848C61.0784 122.304 61.0784 121.761 61.0787 121.217C61.0787 120.048 61.0769 118.88 61.0736 117.711C61.0684 115.847 61.0679 113.982 61.0681 112.118C61.0678 108.14 61.0622 104.162 61.0563 100.185C61.0486 94.9874 61.0433 89.79 61.0439 84.5927C61.0439 84.2797 61.0439 83.9667 61.0439 83.6442C61.0444 74.9115 61.1225 66.1987 61.577 57.4748C61.6608 55.8014 61.6718 54.1357 61.6285 52.4604C61.6444 51.76 61.7571 51.2017 61.9523 50.5303C62.204 48.0085 62.2766 45.5025 62.2148 42.9704C62.2314 42.2571 62.2314 42.2571 62.5418 41.9606C63.4167 38.3819 63.4167 38.3819 62.8695 34.8633C62.1126 33.8489 61.1416 33.1277 60.0128 32.5161C58.9673 32.5199 58.4927 33.1885 57.7596 33.8539ZM73.4178 35.1254C73.5214 35.32 73.625 35.5146 73.7317 35.7151C73.8337 35.5197 73.9357 35.3243 74.0409 35.1231C73.8353 35.1238 73.6297 35.1246 73.4178 35.1254ZM73.1087 35.7174C73.4225 36.3071 73.4225 36.3071 73.4225 36.3071L73.1087 35.7174ZM46.3216 36.4074C46.6355 36.9971 46.6355 36.9971 46.6355 36.9971L46.3216 36.4074ZM29.5097 38.8331C29.4076 39.0284 29.3056 39.2238 29.2005 39.4251C29.7062 39.6291 30.2135 39.8297 30.7215 40.0288C31.0038 40.1408 31.2861 40.2529 31.577 40.3683C32.3145 40.6846 32.3145 40.6846 32.942 40.2975C32.4287 40.0525 31.915 39.8084 31.4011 39.5646C31.115 39.4286 30.829 39.2926 30.5343 39.1524C29.9058 38.8103 29.9058 38.8103 29.5097 38.8331ZM47.6393 54.7193C47.7432 55.0114 47.8472 55.3035 47.9543 55.6045C47.9531 55.312 47.952 55.0195 47.9508 54.7182C47.848 54.7185 47.7452 54.7189 47.6393 54.7193ZM71.6263 54.926C71.9401 55.5157 71.9401 55.5157 71.9401 55.5157L71.6263 54.926ZM48.2658 55.6033C48.4729 55.9925 48.68 56.3817 48.8934 56.7827C48.8923 56.4902 48.8911 56.1978 48.8899 55.8964C48.684 55.7997 48.478 55.703 48.2658 55.6033ZM70.6964 56.1112C70.4923 56.5019 70.2882 56.8926 70.078 57.2952C70.3856 57.099 70.6932 56.9029 71.0102 56.7009C70.9066 56.5063 70.8031 56.3117 70.6964 56.1112ZM49.2049 56.7816C49.6163 57.7024 49.6163 57.7024 50.4567 58.2541C50.0454 57.3333 50.0454 57.3333 49.2049 56.7816ZM71.1641 62.1427C70.4582 62.8597 69.9842 63.5359 69.4827 64.3878C69.0806 64.7939 68.6697 65.1929 68.2413 65.5741C69.9998 65.1024 71.5903 64.5798 73.2184 63.7831C73.7383 63.644 73.7383 63.644 74.2687 63.5022C76.2029 62.9893 76.2029 62.9893 77.8841 61.9932C78.7043 60.4471 78.9216 58.6727 79.1104 56.9663C76.4403 56.9762 73.01 60.5099 71.1641 62.1427ZM40.7966 57.4035C40.9437 58.1262 41.0965 58.8464 41.2614 59.5656C41.4312 60.3555 41.4312 60.3555 41.572 61.4998C42.1468 62.5799 42.3299 62.6175 43.4858 63.0068C43.9393 63.1348 43.9393 63.1348 44.4019 63.2654C45.9904 63.7381 47.5024 64.3716 49.0303 64.996C49.6121 65.2271 50.204 65.4349 50.7971 65.6386C51.0023 65.5404 51.2075 65.4421 51.419 65.3409C48.491 62.143 45.4938 59.2558 41.4196 57.4012C41.214 57.402 41.0084 57.4028 40.7966 57.4035ZM69.7665 57.2963C69.5624 57.6871 69.3583 58.0778 69.1481 58.4803C69.4557 58.2842 69.7633 58.0881 70.0803 57.886C69.9767 57.6914 69.8732 57.4968 69.7665 57.2963ZM50.4567 58.2541C50.6638 58.6433 50.8709 59.0325 51.0843 59.4335C51.0832 59.141 51.0821 58.8485 51.0809 58.5472C50.8749 58.4505 50.6689 58.3537 50.4567 58.2541ZM68.5262 58.7781C68.6298 58.9727 68.7334 59.1673 68.8401 59.3678C68.9421 59.1724 69.0441 58.9771 69.1492 58.7758C68.9437 58.7765 68.7381 58.7773 68.5262 58.7781ZM67.9067 59.6667C68.2205 60.2564 68.2205 60.2564 68.2205 60.2564L67.9067 59.6667ZM35.8276 61.2626C36.1414 61.8523 36.1414 61.8523 36.1414 61.8523L35.8276 61.2626ZM83.1785 61.6782C83.4923 62.2679 83.4923 62.2679 83.4923 62.2679L83.1785 61.6782ZM36.4564 62.7374C36.7702 63.3271 36.7702 63.3271 36.7702 63.3271L36.4564 62.7374ZM36.7702 63.3271C37.084 63.9168 37.084 63.9168 37.084 63.9168L36.7702 63.3271ZM37.084 63.9168C37.3978 64.5065 37.3978 64.5065 37.3978 64.5065L37.084 63.9168ZM81.9417 64.0462C82.2555 64.6359 82.2555 64.6359 82.2555 64.6359L81.9417 64.0462ZM37.3978 64.5065C37.8565 66.0786 38.9903 66.9716 40.2152 68.0413C40.4204 67.943 40.6256 67.8448 40.8371 67.7435C40.6936 67.6085 40.5501 67.4734 40.4023 67.3343C39.4008 66.3917 38.3993 65.4491 37.3978 64.5065ZM81.6325 64.6382C81.636 65.5245 81.636 65.5245 81.636 65.5245L81.6325 64.6382ZM79.7326 66.7133C79.5407 66.909 79.3487 67.1047 79.1509 67.3063C79.2544 67.5009 79.358 67.6955 79.4647 67.896C79.9764 67.3092 80.4881 66.7223 81.0153 66.1177C80.3161 66.0528 80.3161 66.0528 79.7326 66.7133ZM40.8382 68.039C40.839 68.2339 40.8398 68.4289 40.8405 68.6298C41.0458 68.5316 41.251 68.4333 41.4624 68.3321C41.2564 68.2354 41.0504 68.1386 40.8382 68.039ZM41.4635 68.6275C41.7737 69.0651 41.7737 69.0651 42.09 69.5115C42.2952 69.4132 42.5004 69.315 42.7119 69.2138C42.2999 69.0203 41.888 68.8268 41.4635 68.6275ZM77.598 68.4938C77.496 68.6891 77.3939 68.8845 77.2888 69.0858C77.4944 69.085 77.7 69.0843 77.9118 69.0835C77.8082 68.8889 77.7047 68.6943 77.598 68.4938ZM76.6658 69.0881C76.1537 69.5775 75.6416 70.0668 75.114 70.571C75.6273 70.3741 76.1405 70.1772 76.6693 69.9744C76.6681 69.6819 76.667 69.3894 76.6658 69.0881ZM42.713 69.5092C42.8166 69.7038 42.9201 69.8984 43.0268 70.0989C43.2321 70.0006 43.4373 69.9024 43.6487 69.8012C43.3399 69.7048 43.0312 69.6085 42.713 69.5092ZM43.6499 70.0966C43.96 70.5342 43.96 70.5342 44.2763 70.9806C44.4815 70.8823 44.6868 70.7841 44.8982 70.6828C44.4862 70.4894 44.0743 70.2959 43.6499 70.0966ZM44.8993 70.9783C45.157 71.1418 45.4146 71.3054 45.68 71.4739C46.3876 72.1156 46.4614 72.4358 46.5478 73.3818C46.5353 74.0697 46.509 74.7574 46.4683 75.4443C46.3737 76.3302 46.3737 76.3302 47.103 76.8788C47.1418 76.0595 47.1695 75.2423 47.1907 74.4226C47.2029 74.1905 47.215 73.9583 47.2275 73.7191C47.2396 73.0671 47.2335 72.4932 47.0833 71.8565C46.3256 71.2481 45.8961 70.9746 44.8993 70.9783ZM74.491 70.5733C73.3631 71.1287 73.3631 71.1287 72.6278 72.0574C72.6006 72.5848 72.575 73.1125 72.5596 73.6404C72.4462 77.1437 71.6429 79.6177 68.929 82.1158C68.5963 82.3798 68.2601 82.64 67.9197 82.895C66.9856 83.666 66.5614 84.2773 66.1382 85.3759C66.2422 85.6679 66.3461 85.96 66.4532 86.261C66.6708 86.0347 66.8883 85.8085 67.1125 85.5754C67.9936 84.7882 68.7725 84.3498 69.8705 83.8849C69.8743 84.8598 69.8781 85.8347 69.882 86.8392C70.3034 86.4509 70.7154 86.0536 71.1234 85.6528C71.3667 85.4204 71.6099 85.1879 71.8605 84.9485C72.4846 84.1876 72.4846 84.1876 72.146 83.2671C72.0099 82.9812 71.8739 82.6954 71.7337 82.4008C71.4751 81.7175 71.356 81.3782 71.6248 80.6886C71.7349 80.4978 71.845 80.307 71.9584 80.1104C72.6093 78.8097 72.921 77.5429 73.1889 76.136C73.2278 75.9358 73.2666 75.7356 73.3067 75.5294C73.472 74.614 73.568 73.7603 73.5507 72.8306C73.5546 72.5743 73.5584 72.318 73.5623 72.0539C74.1831 71.4977 74.1831 71.4977 74.8049 71.163C74.7013 70.9684 74.5977 70.7738 74.491 70.5733ZM47.103 76.8788C46.7009 77.4775 46.7009 77.4775 47.0278 78.1866C47.1453 78.4676 47.2629 78.7486 47.384 79.0381C48.5397 81.8166 48.5397 81.8166 47.9258 83.1721C47.6864 83.566 47.6864 83.566 47.4422 83.9679C47.7998 84.4598 48.159 84.9506 48.5188 85.4411C48.7186 85.7145 48.9185 85.988 49.1244 86.2697C49.2926 86.4824 49.4609 86.695 49.6343 86.9141C49.7371 86.9137 49.8399 86.9133 49.9458 86.9129C49.9424 86.0355 49.9389 85.1581 49.9354 84.2541C51.3914 84.7894 52.4901 85.3229 53.6815 86.3083C53.1683 83.9207 52.3489 82.9347 50.3057 81.5407C48.7435 80.3368 47.9482 78.6919 47.4145 76.8776C47.3117 76.878 47.2089 76.8784 47.103 76.8788Z" fill="#9E1E22"/>
<path d="M25.5433 60.1226C25.7489 60.1219 25.9545 60.1212 26.1663 60.1204C26.2736 60.4236 26.3808 60.7267 26.4913 61.039C28.5649 66.6865 32.6763 70.4847 37.4383 74.2611C37.9611 74.6819 38.4819 75.1047 39.001 75.5296C39.2395 75.7226 39.478 75.9156 39.7237 76.1145C40.2514 76.6146 40.2514 76.6146 40.2538 77.2054C38.5584 76.7706 37.2302 76.0046 35.7674 75.1164C35.5375 74.979 35.3077 74.8416 35.0709 74.7C34.5082 74.3632 33.9471 74.0242 33.3863 73.6847C33.6282 74.6629 33.8732 75.6405 34.1186 76.6179C34.1862 76.8913 34.2538 77.1647 34.3234 77.4464C35.0115 80.175 35.9399 82.6991 37.1715 85.2485C37.2793 85.4749 37.387 85.7013 37.498 85.9345C38.0924 87.1772 38.7107 88.4034 39.3699 89.6167C38.2674 89.4548 37.8126 89.1214 37.1061 88.3138C36.8617 88.041 36.8617 88.041 36.6123 87.7628C36.2452 87.2644 36.2452 87.2644 36.2428 86.6735C36.0372 86.6743 35.8316 86.675 35.6198 86.6757C35.3569 86.2467 35.0959 85.8166 34.8358 85.386C34.6902 85.1466 34.5447 84.9072 34.3948 84.6605C34.0514 84.0224 34.0514 84.0224 34.049 83.4316C33.843 83.3348 33.6371 83.238 33.4248 83.1384C33.096 82.556 32.7808 81.9664 32.4831 81.3691C34.2885 91.3175 39.231 101.136 46.9218 108.202C47.3718 108.625 47.8212 109.048 48.2704 109.471C48.4885 109.677 48.7065 109.882 48.9312 110.093C49.0937 110.246 49.2561 110.399 49.4235 110.557C49.1155 110.655 48.8075 110.754 48.4902 110.855C45.8892 109.58 43.5701 107.677 41.2848 105.953C40.3829 105.263 40.3829 105.263 39.4313 104.684C40.7043 106.973 40.7043 106.973 42.214 109.124C42.8795 109.989 42.8795 109.989 42.8819 110.58C43.0875 110.579 43.2931 110.579 43.5049 110.578C43.8314 111.061 44.1427 111.554 44.4454 112.052C47.4998 116.017 47.4998 116.017 51.4186 119.095C52.1617 119.667 52.2617 119.98 52.431 120.892C52.4846 121.851 52.508 122.803 52.5012 123.763C52.4951 124.834 52.5219 125.905 52.5459 126.977C52.55 127.19 52.5542 127.404 52.5584 127.624C52.6617 132.175 53.5953 136.624 54.6484 141.053C54.7151 141.333 54.7818 141.614 54.8505 141.903C54.9108 142.15 54.9711 142.398 55.0333 142.653C55.1642 143.329 55.1642 143.329 55.169 144.511C55.375 144.608 55.581 144.705 55.7932 144.804C55.9138 145.392 56.017 145.984 56.1119 146.576C56.3078 147.268 56.52 147.957 56.7434 148.642C56.8294 148.911 56.8294 148.911 56.9172 149.187C57.7345 151.622 58.8397 153.961 59.8897 156.312C60.0953 156.311 60.3009 156.31 60.5127 156.309C60.8557 155.752 60.8557 155.752 61.1309 155.125C61.0273 154.931 60.9237 154.736 60.817 154.536C61.0226 154.535 61.2282 154.534 61.44 154.533C65.3291 145.337 67.6393 135.407 67.5518 125.486C67.5089 120.194 67.5089 120.194 68.323 118.854C69.155 118.1 70.0113 117.379 70.8804 116.664C75.2198 113.025 78.1885 108.597 81.1704 103.944C81.0207 104.073 80.8711 104.201 80.7169 104.334C80.4228 104.582 80.4228 104.582 80.1227 104.834C79.831 105.082 79.831 105.082 79.5333 105.335C78.9971 105.725 78.9971 105.725 78.3741 105.727C78.3749 105.922 78.3757 106.117 78.3765 106.318C78.0632 106.485 77.7498 106.653 77.427 106.825C76.0507 107.577 74.7383 108.413 73.4275 109.263C72.3916 109.915 71.5375 110.347 70.2942 110.483C71.3754 109.417 72.5078 108.435 73.6891 107.47C75.2737 106.116 76.5571 104.655 77.818 103.033C77.9858 102.821 78.1536 102.609 78.3264 102.391C78.4862 102.186 78.646 101.982 78.8106 101.772C79.0271 101.495 79.0271 101.495 79.2479 101.213C79.6556 100.667 79.6556 100.667 79.9075 99.8129C80.2159 99.5145 80.5264 99.2182 80.8384 98.9232C81.4078 98.057 81.8891 97.146 82.385 96.2404C82.5206 96.0009 82.6561 95.7615 82.7958 95.5148C83.7203 93.8367 84.3559 92.1742 84.8531 90.3414C85.0587 90.3407 85.2643 90.34 85.4761 90.3392C85.5897 89.8361 85.5897 89.8361 85.7056 89.3229C85.9288 88.3475 86.1619 87.3747 86.4019 86.403C86.485 86.0659 86.485 86.0659 86.5698 85.722C86.6823 85.2667 86.7954 84.8114 86.9092 84.3563C87.207 83.2208 87.207 83.2208 87.3114 82.0606C86.4656 82.7587 86.1288 83.4312 85.7635 84.4296C85.5579 84.4303 85.3523 84.431 85.1405 84.4318C85.0642 84.6331 84.9879 84.8345 84.9094 85.0419C84.4427 86.0931 83.9275 87.0166 83.2859 87.9836C82.8239 88.1314 82.8239 88.1314 82.3526 88.2823C81.9785 88.8745 81.9785 88.8745 81.7344 89.4662C81.5288 89.467 81.3232 89.4677 81.1114 89.4684C81.5143 88.2213 82.0142 87.0455 82.5659 85.8538C84.4054 81.8545 85.5706 77.7261 86.6535 73.4954C85.5708 74.0736 84.5112 74.6644 83.4667 75.3036C83.2881 75.4123 83.1095 75.5211 82.9255 75.6332C82.5642 75.854 82.2045 76.0772 81.8466 76.3029C81.3918 76.5793 80.9156 76.8235 80.4378 77.0627C80.1291 76.9663 79.8203 76.8699 79.5021 76.7706C80.5264 75.7777 81.577 74.8281 82.6639 73.8973C84.3669 72.4113 86.037 70.8935 87.6879 69.3557C88.0421 69.0341 88.0421 69.0341 88.4035 68.7061C90.5703 66.6663 91.9857 64.3491 92.952 61.6003C93.0497 61.3277 93.1473 61.055 93.248 60.7741C93.3154 60.577 93.3829 60.3799 93.4524 60.1768C93.7608 60.1757 94.0692 60.1746 94.3869 60.1735C94.5077 60.3992 94.5077 60.3992 94.6309 60.6296C96.612 64.1645 99.4313 67.2046 102.215 70.1904C102.372 70.3581 102.528 70.5258 102.689 70.6986C104.423 72.5454 106.126 74.2684 108.267 75.7024C108.781 76.0757 108.781 76.0757 109.095 76.6654C109.3 76.5672 109.505 76.469 109.717 76.3678C109.817 76.5735 109.918 76.7791 110.021 76.991C110.912 78.1816 112.044 78.8546 113.313 79.6602C113.554 79.8168 113.795 79.9734 114.043 80.1348C114.992 80.7494 115.946 81.3546 116.904 81.9555C116.905 82.1504 116.906 82.3454 116.907 82.5463C116.681 82.5051 116.454 82.4639 116.222 82.4214C113.421 81.9623 110.713 81.8954 107.878 81.9267C107.125 81.9349 106.373 81.9381 105.621 81.9407C105.135 81.9439 104.65 81.9474 104.164 81.9511C103.832 81.9528 103.832 81.9528 103.493 81.9545C102.117 81.9717 100.815 82.098 99.4613 82.3129C99.7486 82.4661 100.036 82.6193 100.332 82.7772C103.265 84.3702 105.9 86.1675 108.519 88.1893C108.786 88.3845 109.052 88.5797 109.327 88.7808C110.155 89.423 110.889 90.1187 111.645 90.8371C112.055 91.2228 112.055 91.2228 112.473 91.6163C119.541 98.2687 119.541 98.2687 119.779 99.3758C119.213 99.2453 118.648 99.1112 118.083 98.9756C117.769 98.9013 117.454 98.827 117.13 98.7505C116.349 98.5017 116.349 98.5017 116.035 97.9119C115.382 97.7678 114.728 97.6272 114.071 97.5034C112.544 97.1909 111.06 96.7347 109.564 96.31C106.949 95.5791 104.415 94.9505 101.692 94.7131C101.593 95.4934 101.493 96.2737 101.39 97.0776C101.596 97.1744 101.802 97.2712 102.015 97.3709C102.468 100.625 102.692 103.434 100.536 106.162C99.7758 107.027 98.9928 107.867 98.1825 108.69C97.6063 109.306 97.1899 109.963 96.7733 110.684C96.5116 110.994 96.2403 111.297 95.9593 111.592C93.7596 113.993 91.857 116.649 89.8945 119.227C89.2846 120.026 88.6713 120.808 88.0139 121.573C87.4212 122.229 87.4212 122.229 87.1672 123.126C86.7558 123.524 86.3416 123.919 85.926 124.312C85.4546 124.912 84.9988 125.512 84.5511 126.127C84.2782 126.497 84.0051 126.867 83.7318 127.236C83.514 127.532 83.514 127.532 83.2918 127.833C82.4609 128.955 81.6176 130.067 80.7752 131.181C80.6041 131.408 80.4331 131.634 80.2569 131.867C79.5131 132.852 78.7679 133.835 78.0144 134.813C77.6843 135.242 77.6843 135.242 77.3475 135.68C77.1609 135.921 76.9744 136.161 76.7822 136.409C76.3106 137.033 76.3106 137.033 75.9855 137.693C75.703 138.234 75.703 138.234 75.1017 138.79C74.3551 139.525 73.9927 140.278 73.5345 141.196C73.3297 141.392 73.1249 141.587 72.9139 141.789C72.7095 142.095 72.5052 142.4 72.2946 142.715C72.0902 142.996 71.8857 143.277 71.6751 143.566C71.4695 143.567 71.2639 143.568 71.0521 143.568C70.9822 143.77 70.9124 143.971 70.8404 144.178C70.4091 145.103 69.8737 145.829 69.2442 146.639C68.8596 147.127 68.8596 147.127 68.5771 147.75C68.2678 148.305 68.2678 148.305 67.5308 148.991C66.8656 149.642 66.5002 150.089 66.0587 150.861C65.5791 151.687 65.2369 152.12 64.5478 152.75C64.3883 153.012 64.2287 153.275 64.0643 153.546C63.9175 153.772 63.7706 153.997 63.6193 154.23C63.4137 154.231 63.2081 154.232 62.9963 154.233C62.9329 154.434 62.8695 154.635 62.8041 154.843C62.2391 155.999 61.4174 156.849 60.5187 157.787C59.5647 157.4 59.0547 157.044 58.4694 156.234C58.3248 156.037 58.1803 155.84 58.0314 155.637C57.8783 155.424 57.7252 155.21 57.5675 154.99C57.2317 154.532 56.8956 154.075 56.5592 153.617C56.3864 153.381 56.2136 153.145 56.0355 152.901C55.2052 151.775 54.351 150.667 53.4957 149.558C53.1552 149.116 52.8147 148.673 52.4743 148.231C52.3046 148.011 52.1349 147.79 51.96 147.563C51.4314 146.876 50.9042 146.187 50.3775 145.499C48.9091 143.58 47.441 141.663 45.9213 139.78C44.6316 138.179 43.4284 136.527 42.2421 134.857C41.5291 133.781 41.5291 133.781 40.4814 133.041C40.1586 132.556 39.8472 132.063 39.5408 131.568C39.069 130.907 38.5938 130.25 38.1115 129.597C37.9866 129.426 37.8616 129.255 37.7328 129.078C37.2222 128.385 36.7308 127.746 36.0962 127.148C35.941 126.899 35.7858 126.65 35.6259 126.393C35.2276 125.643 35.2276 125.643 34.5315 125.381C34.2277 124.89 33.9255 124.398 33.6337 123.901C33.0521 122.95 32.3729 122.07 31.6913 121.181C31.5555 121.001 31.4196 120.821 31.2796 120.636C30.6388 119.795 29.991 119.031 29.207 118.31C28.9235 117.929 28.6501 117.542 28.3846 117.149C27.4083 115.747 26.3477 114.418 25.2724 113.083C24.3156 111.888 23.3984 110.666 22.4853 109.44C21.8748 108.627 21.248 107.839 20.5656 107.079C19.9192 106.351 19.3471 105.624 18.7944 104.831C18.6377 104.607 18.481 104.384 18.3196 104.154C17.6784 103.2 17.586 102.64 17.6128 101.511C17.8184 101.511 18.0239 101.51 18.2358 101.509C18.2502 101.316 18.2647 101.122 18.2796 100.923C18.4518 98.8296 18.7595 96.7782 19.1426 94.711C12.6642 95.8893 6.36984 97.7078 0.161318 99.8008C0.160126 99.5083 0.158934 99.2158 0.157706 98.9145C0.363299 98.9137 0.568892 98.913 0.780714 98.9123C0.860196 98.7396 0.939678 98.567 1.02157 98.3891C1.43149 97.6713 1.8803 97.2006 2.49078 96.627C2.70579 96.4234 2.92079 96.2199 3.14231 96.0101C3.36693 95.8004 3.59155 95.5908 3.82298 95.3747C4.15449 95.0619 4.15449 95.0619 4.4927 94.7428C4.92303 94.3369 5.3541 93.9317 5.78595 93.5272C6.26361 93.0779 6.73562 92.6232 7.20608 92.1672C8.49386 90.9576 9.91555 89.9012 11.3309 88.8301C11.5316 88.6781 11.7322 88.5262 11.939 88.3696C14.7398 86.2598 17.555 84.2978 20.6508 82.5929C19.9956 81.9762 18.568 82.2563 17.6669 82.2584C17.2579 82.2584 17.2579 82.2584 16.8406 82.2584C16.2595 82.2589 15.6783 82.2603 15.0972 82.2624C14.2228 82.2649 13.3485 82.2627 12.4741 82.2601C9.32249 82.2623 6.31298 82.3903 3.20774 82.9503C3.55839 81.9396 3.72895 81.8481 4.63809 81.3007C4.98676 81.0864 4.98676 81.0864 5.34247 80.8678C5.5919 80.7169 5.84132 80.5659 6.09831 80.4104C9.13086 78.5287 11.8462 76.5111 14.3858 74.0476C14.6482 73.8029 14.9106 73.5583 15.181 73.3062C15.9551 72.5749 15.9551 72.5749 16.6153 71.7316C16.8007 71.5177 16.9862 71.3038 17.1773 71.0834C17.3829 71.0826 17.5884 71.0819 17.8003 71.0811C17.9015 70.6908 18.0027 70.3005 18.107 69.8983C18.2102 69.9954 18.3133 70.0926 18.4197 70.1926C20.8691 67.1526 23.1578 64.1144 25.1066 60.7554C25.2507 60.5466 25.3948 60.3378 25.5433 60.1226Z" fill="#9E1E22"/>
<path d="M59.574 0.0196402C60.9714 1.14289 62.3577 2.27597 63.7307 3.42597C64.2481 3.86477 64.2481 3.86477 64.8858 4.13604C64.5725 4.78232 64.3064 5.28198 63.7803 5.79574C63.124 6.84733 63.262 7.86084 63.3243 9.04184C63.3335 9.29177 63.3428 9.5417 63.3523 9.7992C63.383 10.6093 63.4201 11.419 63.4572 12.2288C63.4899 13.0561 63.5207 13.8835 63.5515 14.7108C63.5718 15.2556 63.5927 15.8003 63.6142 16.3451C63.7277 19.2701 63.7332 22.1889 63.7218 25.1161C61.0491 25.126 58.3764 25.1358 55.6227 25.146C55.4127 23.0417 55.2839 21.5755 55.5095 19.5741C55.6773 17.8008 55.6942 16.0185 55.7366 14.2392C55.7527 13.5664 55.7703 12.8936 55.7881 12.2208C55.8191 11.0142 55.8492 9.80772 55.8695 8.6009C55.8771 8.38978 55.8846 8.17866 55.8924 7.96114C55.9272 6.45445 55.7059 5.86244 54.6085 4.76494C54.6061 4.17408 54.6061 4.17408 55.062 3.73502C55.2701 3.56782 55.4783 3.40063 55.6927 3.22837C56.029 2.95521 56.029 2.95521 56.372 2.67654C56.609 2.48524 56.8459 2.29395 57.0901 2.09686C57.5566 1.70823 58.0224 1.31879 58.4873 0.928425C59.0307 0.474032 59.0307 0.474032 59.574 0.0196402ZM58.9672 4.15794C58.9683 4.45042 58.9695 4.74289 58.9707 5.04423C59.2794 5.14058 59.5882 5.23693 59.9063 5.3362C60.0076 4.94585 60.1089 4.55551 60.2132 4.15333C59.802 4.15485 59.3908 4.15638 58.9672 4.15794Z" fill="#9E1E22"/>
<path d="M58.3108 25.3932C65.3571 25.0549 65.3571 25.0549 68.0909 27.1682C67.9888 27.3636 67.8868 27.559 67.7817 27.7603C62.4363 27.78 57.0909 27.7998 51.5835 27.8202C52.2373 26.5683 52.4847 26.3316 53.7559 25.7441C55.2431 25.4252 56.7928 25.4705 58.3108 25.3932Z" fill="#9E1E22"/>
<path d="M52.202 26.6364C52.3055 26.831 52.4091 27.0256 52.5158 27.2261C54.4563 27.1842 56.3967 27.1401 58.3371 27.0945C58.9975 27.0793 59.658 27.0645 60.3185 27.0503C61.2664 27.0297 62.2143 27.0074 63.1621 26.9847C63.607 26.9757 63.607 26.9757 64.0608 26.9664C64.3352 26.9595 64.6095 26.9526 64.8921 26.9455C65.2553 26.9373 65.2553 26.9373 65.6257 26.9289C66.2476 26.913 66.2476 26.913 66.8427 26.5822C67.255 26.8731 67.6673 27.1641 68.0921 27.4639C67.1731 27.7582 66.5819 27.8007 65.6231 27.802C65.3113 27.8031 64.9996 27.8042 64.6784 27.8054C64.3425 27.8051 64.0066 27.8048 63.6606 27.8045C63.3162 27.8054 62.9718 27.8063 62.617 27.8071C61.5156 27.8096 60.4142 27.8099 59.3129 27.8102C58.5667 27.8115 57.8206 27.8129 57.0745 27.8145C55.2442 27.818 53.4139 27.8198 51.5836 27.8204C51.7877 27.4297 51.9917 27.0389 52.202 26.6364Z" fill="#9E1E22"/>
<path d="M67.7235 92.4601C67.8263 92.4597 67.9291 92.4593 68.035 92.4589C68.0403 93.8238 68.0457 95.1887 68.0512 96.5949C68.2567 96.5942 68.4623 96.5934 68.6742 96.5926C68.5985 97.1469 68.5985 97.1469 68.3673 97.7755C67.7516 98.0703 67.7516 98.0703 67.1236 98.371C67.3215 96.4204 67.5195 94.4698 67.7235 92.4601Z" fill="#9E1E22"/>
<path d="M45.6632 107.018C46.9138 108.195 48.1645 109.373 49.4151 110.55C49.1071 110.648 48.7991 110.747 48.4817 110.849C47.4868 110.335 47.4868 110.335 46.6081 109.674C46.607 109.381 46.6058 109.089 46.6046 108.787C45.9986 108.143 45.9986 108.143 45.354 107.61C45.456 107.415 45.5581 107.22 45.6632 107.018Z" fill="#9E1E22"/>
<path d="M38.0624 75.1395C38.4284 75.3696 38.7924 75.6027 39.1554 75.8371C39.4597 76.0313 39.4597 76.0313 39.7702 76.2295C39.9281 76.3546 40.086 76.4797 40.2487 76.6085C40.2494 76.8035 40.2502 76.9985 40.251 77.1994C38.4857 76.7696 38.4857 76.7696 37.9489 75.9893C37.8839 75.8067 37.8189 75.6241 37.752 75.4361C37.8544 75.3382 37.9568 75.2403 38.0624 75.1395Z" fill="#9E1E22"/>
<path d="M23.0293 54.5146C23.7493 54.6095 24.4692 54.7043 25.211 54.802C25.2121 55.0945 25.2133 55.387 25.2144 55.6883C25.5246 56.1259 25.5246 56.1259 25.8409 56.5723C24.8692 56.133 23.9302 55.669 23.0316 55.1055C23.0308 54.9105 23.0301 54.7155 23.0293 54.5146Z" fill="#9E1E22"/>
<path d="M41.4041 133.032C42.5902 133.825 43.1219 134.387 43.595 135.683C43.8013 135.877 44.0077 136.071 44.2203 136.271C43.4534 136.159 43.0602 136.064 42.509 135.532C42.3782 135.352 42.2474 135.172 42.1126 134.986C41.9786 134.808 41.8446 134.629 41.7065 134.445C41.4075 133.918 41.4075 133.918 41.4041 133.032Z" fill="#9E1E22"/>
<path d="M93.4524 60.1629C93.7608 60.1618 94.0692 60.1606 94.3869 60.1595C94.8011 60.9379 95.2154 61.7163 95.6421 62.5183C94.3938 61.932 94.3938 61.932 94.08 61.3423C93.7716 61.3435 93.4632 61.3446 93.1455 61.3458C93.2468 60.9554 93.348 60.5651 93.4524 60.1629Z" fill="#9E1E22"/>
<path d="M94.8193 11.4114C95.0249 11.4106 95.2305 11.4099 95.4423 11.4091C95.7877 12.3797 95.6968 12.8005 95.4515 13.7725C95.1432 13.7737 94.8348 13.7748 94.517 13.776C94.5011 13.0868 94.4989 12.3973 94.5089 11.708C94.6114 11.6101 94.7138 11.5122 94.8193 11.4114Z" fill="#9E1E22"/>
<path d="M81.6719 74.6824C81.8778 74.7791 82.0838 74.8758 82.296 74.9755C81.8064 75.913 81.5375 76.3765 80.5316 76.8469C80.2942 76.9148 80.0567 76.9827 79.8121 77.0527C79.7085 76.8581 79.605 76.6635 79.4983 76.463C80.2156 75.8754 80.9328 75.2878 81.6719 74.6824Z" fill="#9E1E22"/>
<path d="M19.3977 81.7085C20.3229 81.7051 21.248 81.7016 22.2012 81.6981C21.9972 82.0888 21.7931 82.4796 21.5829 82.8821C21.2748 82.9808 20.9668 83.0794 20.6495 83.181C20.5456 82.8889 20.4416 82.5968 20.3345 82.2959C20.0254 82.1021 19.7162 81.9082 19.3977 81.7085Z" fill="#9E1E22"/>
<path d="M45.7611 52.3626C46.1202 52.6432 46.478 52.9253 46.8352 53.208C47.0346 53.3649 47.234 53.5219 47.4394 53.6835C47.9485 54.1271 47.9485 54.1271 48.2624 54.7168C47.2912 54.2778 46.373 53.7786 45.4531 53.2501C45.5547 52.9572 45.6564 52.6643 45.7611 52.3626Z" fill="#9E1E22"/>
<path d="M28.3145 51.8369C29.2396 51.8335 30.1648 51.8301 31.118 51.8265C31.016 52.0219 30.9139 52.2173 30.8088 52.4185C30.0861 52.5416 29.359 52.6438 28.6294 52.722C28.5255 52.43 28.4215 52.1379 28.3145 51.8369Z" fill="#9E1E22"/>
<path d="M65.5176 85.9688C66.1349 86.1127 66.1349 86.1127 66.7648 86.2596C66.6631 86.5524 66.5615 86.8453 66.4567 87.147C66.2511 87.1478 66.0455 87.1485 65.8337 87.1493C65.7321 87.4422 65.6304 87.735 65.5257 88.0368C65.1698 86.6348 65.1698 86.6348 65.5176 85.9688Z" fill="#9E1E22"/>
<path d="M62.5394 41.3693C62.6422 41.3689 62.745 41.3685 62.8509 41.3681C62.8547 42.343 62.8585 43.318 62.8625 44.3224C62.1145 43.6184 62.0247 43.239 61.9198 42.2579C62.1243 41.9646 62.3287 41.6714 62.5394 41.3693Z" fill="#9E1E22"/>
<path d="M15.1688 35.932C15.2727 36.224 15.3767 36.5161 15.4838 36.8171C15.2778 36.7204 15.0718 36.6236 14.8596 36.524C14.9616 36.3286 15.0637 36.1332 15.1688 35.932Z" fill="#9E1E22"/>
<path d="M90.6648 64.3101C90.8704 64.3093 91.076 64.3085 91.2878 64.3078C91.1858 64.5031 91.0837 64.6985 90.9786 64.8998C90.8751 64.7052 90.7715 64.5106 90.6648 64.3101Z" fill="#9E1E22"/>
<path d="M74.7615 139.704C75.3856 139.997 75.3856 139.997 75.3856 139.997L74.7615 139.704Z" fill="#9E1E22"/>
<path d="M55.0964 129.436C55.7206 129.729 55.7206 129.729 55.7206 129.729L55.0964 129.436Z" fill="#9E1E22"/>
<path d="M28.8906 119.488C29.5148 119.781 29.5148 119.781 29.5148 119.781L28.8906 119.488Z" fill="#9E1E22"/>
<path d="M27.3239 117.131C27.948 117.424 27.948 117.424 27.948 117.424L27.3239 117.131Z" fill="#9E1E22"/>
<path d="M70.9299 115.788C71.5541 116.081 71.5541 116.081 71.5541 116.081L70.9299 115.788Z" fill="#9E1E22"/>
<path d="M68.7273 110.183C69.3515 110.476 69.3515 110.476 69.3515 110.476L68.7273 110.183Z" fill="#9E1E22"/>
<path d="M116.284 83.7129C116.909 84.006 116.909 84.006 116.909 84.006L116.284 83.7129Z" fill="#9E1E22"/>
<path d="M68.9314 82.7065C69.5556 82.9997 69.5556 82.9997 69.5556 82.9997L68.9314 82.7065Z" fill="#9E1E22"/>
<path d="M2.57056 80.293C3.19472 80.5861 3.19472 80.5861 3.19472 80.5861L2.57056 80.293Z" fill="#9E1E22"/>
<path d="M79.8063 75.5757C80.4304 75.8688 80.4304 75.8688 80.4304 75.8688L79.8063 75.5757Z" fill="#9E1E22"/>
<path d="M81.6694 74.0918C82.2936 74.3849 82.2936 74.3849 82.2936 74.3849L81.6694 74.0918Z" fill="#9E1E22"/>
<path d="M86.012 69.3481C86.6361 69.6413 86.6361 69.6413 86.6361 69.6413L86.012 69.3481Z" fill="#9E1E22"/>
<path d="M27.7389 63.9512C28.3631 64.2443 28.3631 64.2443 28.3631 64.2443L27.7389 63.9512Z" fill="#9E1E22"/>
<path d="M92.1763 52.4858C92.8004 52.779 92.8004 52.779 92.8004 52.779L92.1763 52.4858Z" fill="#9E1E22"/>
<path d="M61.5842 36.0552C62.2084 36.3483 62.2084 36.3483 62.2084 36.3483L61.5842 36.0552Z" fill="#9E1E22"/>
<path d="M72.4695 31.5835C73.0936 31.8766 73.0936 31.8766 73.0936 31.8766L72.4695 31.5835Z" fill="#9E1E22"/>
<path d="M69.0417 31.3008C69.6659 31.5939 69.6659 31.5939 69.6659 31.5939L69.0417 31.3008Z" fill="#9E1E22"/>
<path d="M72.467 30.9927C73.0912 31.2858 73.0912 31.2858 73.0912 31.2858L72.467 30.9927Z" fill="#9E1E22"/>
<path d="M49.725 30.4858C50.3491 30.779 50.3491 30.779 50.3491 30.779L49.725 30.4858Z" fill="#9E1E22"/>
<path d="M96.7031 15.2451C97.3273 15.5382 97.3273 15.5382 97.3273 15.5382L96.7031 15.2451Z" fill="#9E1E22"/>
</svg>
